<svg width="597" height="597" viewBox="0 0 597 597" fill="none" xmlns="http://www.w3.org/2000/svg">
<circle cx="298.5" cy="298.5" r="298.5" fill="#FCD434"/>
<g filter="url(#filter0_d_138_62)">
<path d="M234.225 123.894C282.962 103.739 340.388 105.594 387.584 129.24C407.642 139.104 425.777 152.772 441.004 169.131C431.114 169.122 421.224 169.122 411.325 169.131C393.199 154.008 371.895 142.621 349.103 136.379C319.188 128.012 286.906 128.412 257.192 137.449C223.343 147.601 193.089 169.053 172.063 197.417C168.102 191.332 164.106 185.263 160.302 179.073C179.882 154.957 205.434 135.647 234.225 123.894Z" fill="#FFFDF4"/>
<path d="M300.165 483.239C235.322 382.892 170.505 282.537 105.636 182.208C119.33 182.138 133.017 182.208 146.703 182.173C201.055 266.204 255.32 350.288 309.672 434.311C314.443 426.205 319.388 418.204 324.186 410.116C278.896 339.736 233.703 269.295 188.431 198.906C184.966 194.205 186.289 186.761 191.339 183.722C194.273 181.659 197.982 182.234 201.342 182.181C293.644 182.19 385.947 182.181 478.249 182.181C484.108 182.112 488.845 187.988 488.192 193.674C487.965 196.764 485.989 199.263 484.5 201.849C467.323 230.466 450.154 259.083 432.986 287.7C427.205 297.041 421.921 306.705 415.835 315.847C416.74 301.621 415.739 287.308 416.366 273.056C416.505 264.82 416.262 256.584 416.47 248.348C422.826 237.204 429.678 226.321 436.172 215.256C424.724 215.282 413.267 215.256 401.818 215.273C401.809 256.288 401.818 297.302 401.818 338.317C401.983 339.814 400.982 341.007 400.286 342.235C389.238 360.492 378.39 378.879 367.272 397.101C367.133 336.497 367.255 275.877 367.211 215.265C323.715 215.273 280.22 215.247 236.724 215.282C245.891 229.316 255.198 243.255 264.444 257.246C293.479 257.307 322.514 257.246 351.549 257.28C351.532 267.214 351.549 277.157 351.532 287.09C329.07 287.09 306.608 287.09 284.146 287.09C308.758 324.213 333.31 361.38 357.878 398.537C360.438 401.898 361.195 406.756 358.819 410.439C344.114 434.877 329.557 459.411 314.591 483.683C311.37 488.663 303.117 488.35 300.165 483.239Z" fill="#FFFDF4"/>
<path d="M466.217 257.785C471.084 249.941 475.629 241.905 480.521 234.079C492.98 269.6 494.373 308.89 484.465 345.204C475.933 376.711 458.791 405.842 435.398 428.608C407.738 456.181 371.033 474.394 332.396 480.001C336.966 472.052 341.876 464.303 346.438 456.346C378.172 448.153 407.286 430.236 428.955 405.659C449.267 382.84 463.066 354.284 468.228 324.17C472.059 302.204 471.249 279.498 466.217 257.785Z" fill="#FFFDF4"/>
<path d="M127.767 352.63C116.205 316.334 116.092 276.434 127.592 240.112C132.511 247.913 137.674 255.565 142.68 263.331C137.204 290.094 138.588 318.215 146.624 344.324C157.359 379.741 180.5 411.135 210.927 432.152C228.096 444.062 247.554 452.716 267.935 457.373C272.985 465.104 277.982 472.87 282.892 480.697C249.705 476.823 217.657 463.746 191.278 443.226C161.651 420.329 139.024 388.386 127.767 352.63Z" fill="#FFFDF4"/>
</g>
<defs>
<filter id="filter0_d_138_62" x="88.6357" y="101.031" width="419.364" height="411.22" filterUnits="userSpaceOnUse" color-interpolation-filters="sRGB">
<feFlood flood-opacity="0" result="BackgroundImageFix"/>
<feColorMatrix in="SourceAlpha" type="matrix" values="0 0 0 0 0 0 0 0 0 0 0 0 0 0 0 0 0 0 127 0" result="hardAlpha"/>
<feOffset dy="8"/>
<feGaussianBlur stdDeviation="8.5"/>
<feComposite in2="hardAlpha" operator="out"/>
<feColorMatrix type="matrix" values="0 0 0 0 0.708333 0 0 0 0 0.571389 0 0 0 0 0.0236111 0 0 0 0.36 0"/>
<feBlend mode="normal" in2="BackgroundImageFix" result="effect1_dropShadow_138_62"/>
<feBlend mode="normal" in="SourceGraphic" in2="effect1_dropShadow_138_62" result="shape"/>
</filter>
</defs>
</svg>
