<svg width="597" height="597" viewBox="0 0 597 597" fill="none" xmlns="http://www.w3.org/2000/svg">
<circle cx="298.5" cy="298.5" r="298.5" fill="#FFE4BC"/>
<path d="M228.06 134.328C229.631 132.085 232.124 130.444 234.878 130.158C237.776 129.814 240.649 130.804 243.125 132.245C246.996 134.488 250.078 137.782 253.303 140.823C260.302 147.65 267.21 154.571 273.955 161.639C281.314 159.425 289.041 158.348 296.723 158.917C305.857 159.519 314.788 162.224 322.932 166.362C334.895 159.936 346.817 153.421 359.026 147.458C364.092 145.198 369.622 143.111 375.269 143.881C379.321 144.392 382.857 147.449 383.901 151.403C385.411 156.899 384.04 162.662 382.485 167.991C377.696 183.211 369.752 197.2 361.293 210.645C365.259 224.036 366.753 238.07 366.851 251.997C372.425 256.282 377.23 261.758 379.976 268.286C382.583 274.364 383.131 281.264 381.629 287.693C379.861 295.424 375.593 302.337 370.551 308.361C363.687 316.727 354.54 323.017 344.644 327.274C346.563 332.267 350.271 336.417 354.65 339.417C360.585 343.514 367.416 346.018 373.612 349.669C374.181 344.803 376.661 340.203 380.5 337.141C385.628 332.991 392.189 331.01 398.659 330.253C407.663 329.251 417.146 331.01 424.762 336.061C431.184 340.207 435.767 346.739 438.329 353.872C439.877 359.086 440.83 364.497 440.789 369.948C440.638 377.528 438.215 385.042 433.766 391.193C429.452 396.997 423.661 401.576 417.314 404.977C413.397 407.159 409.185 408.71 405.003 410.273C405.326 410.351 405.977 410.507 406.3 410.588C406.042 410.805 405.756 410.977 405.441 411.108C405.784 413.854 405.862 416.637 405.629 419.396C405.076 424.671 402.965 429.804 399.429 433.786C395.381 438.435 389.786 441.406 384.04 443.42C376.718 446.191 369.953 450.173 363.114 453.93C358.473 456.427 353.709 458.919 348.491 459.93C344.656 460.675 340.563 460.29 337.048 458.526C332.648 456.361 329.239 452.669 326.284 448.843C323.661 445.372 321.549 441.529 319.932 437.494C316.699 437.637 313.466 437.813 310.233 437.919C309.467 441.034 308.722 444.218 307.044 446.993C304.29 451.704 299.727 455.121 294.75 457.212C289.053 459.619 282.828 460.564 276.673 460.65C267.726 460.748 258.804 459.046 250.402 456.017C244.831 454.041 238.823 451.184 236.171 445.552C235.889 444.922 235.66 444.271 235.5 443.612C235.169 442.176 235.152 440.698 235.214 439.237C226.05 440.432 216.674 438.685 208.194 435.149C204.285 433.54 200.442 431.31 197.946 427.811C196.079 425.24 195.232 422.003 195.47 418.848C195.867 414.149 198.339 409.897 201.392 406.418C204.801 402.6 208.992 399.403 213.772 397.521C215.02 397.001 216.183 396.305 217.345 395.617C215.491 393.858 213.604 392.13 211.763 390.354C213.281 388.23 214.951 386.18 215.974 383.757C218.581 377.822 219.293 371.274 219.694 364.869C219.882 361.247 219.936 357.621 219.874 353.999C219.985 353.389 219.469 353.021 219.084 352.673C215.483 349.587 212.311 345.818 210.596 341.353C209.667 338.876 209.344 336.04 210.363 333.54C211.296 331.186 213.252 329.459 215.25 327.998C214.157 325.6 211.808 323.955 211.14 321.327C210.154 317.374 211.366 312.389 215.233 310.416C209.495 305.095 204.31 299.116 200.328 292.359C196.538 285.938 193.755 278.792 193.133 271.319C192.482 264.115 194.189 256.659 198.289 250.663C202.849 243.881 209.913 239.211 217.345 236.093C219.678 223.541 223.926 211.324 230.036 200.11C227.519 188.642 225.494 177.048 224.507 165.343C223.979 158.422 223.611 151.423 224.548 144.519C225.08 140.958 225.952 137.312 228.06 134.328ZM232.922 135.085C230.72 136.694 229.762 139.42 229.116 141.961C227.818 147.609 227.912 153.457 228.146 159.216C228.735 171.224 230.646 183.129 233.045 194.9C234.731 192.379 236.425 189.862 238.267 187.451C236.957 178.902 235.77 170.291 235.697 161.626C235.778 158.868 235.713 155.958 236.883 153.396C237.686 151.775 239.851 151.677 241.295 152.451C244.295 153.908 246.661 156.343 248.998 158.672C252.256 161.987 255.157 165.621 258.161 169.165C261.82 166.779 265.745 164.802 269.809 163.19C262.97 155.987 255.923 148.98 248.781 142.072C245.822 139.272 242.851 136.256 238.991 134.729C237.059 133.944 234.673 133.8 232.922 135.085ZM363.532 149.913C358.534 151.96 353.816 154.603 349.007 157.039C341.709 160.853 334.433 164.7 327.213 168.658C330.811 170.929 334.355 173.299 337.645 176.004C344.677 171.559 351.749 167.041 359.484 163.894C361.628 163.157 364.023 162.109 366.286 162.952C367.534 163.44 367.952 164.888 367.939 166.116C367.948 169.484 366.834 172.722 365.762 175.873C363.085 183.248 359.582 190.292 355.919 197.216C357.401 199.868 358.604 202.66 359.627 205.512C363.908 199.046 367.616 192.199 371.095 185.266C374.574 178.14 377.745 170.798 379.64 163.075C380.414 159.519 381.069 155.704 379.906 152.16C379.207 149.95 377.213 148.276 374.93 147.916C371.029 147.269 367.137 148.538 363.532 149.913ZM237.645 154.129C236.757 155.5 236.773 157.206 236.646 158.782C237.051 158.487 237.452 158.193 237.862 157.902C237.28 167.07 238.737 176.213 239.978 185.27C243.358 181.312 246.988 177.551 251.036 174.269C252.771 172.877 254.539 171.523 256.401 170.299C256.651 170.041 256.905 169.779 257.159 169.517C253.226 164.577 249.358 159.408 244.14 155.741C242.818 154.763 241.426 153.793 239.818 153.372C239.028 153.175 238.099 153.425 237.645 154.129ZM261.918 171.531C250.222 178.447 240.952 188.941 234.305 200.695C231.567 205.611 229.046 210.685 227.225 216.014C226.893 216.542 226.697 217.14 226.492 217.725C224.168 224.486 222.08 231.39 221.11 238.487C220.873 239.072 220.247 239.252 219.727 239.477C214.443 241.585 209.36 244.462 205.321 248.518C200.95 252.685 198.036 258.361 197.27 264.357C196.411 270.75 197.753 277.257 200.188 283.171C203.225 290.493 207.862 297.07 213.26 302.84C222.097 312.209 233.024 319.637 245.122 324.094C262.97 330.761 282.23 333.237 301.216 332.533C318.07 331.772 335.173 328.395 350.042 320.136C360.061 314.627 368.496 306.291 374.05 296.292C377.303 290.358 379.19 283.449 378.187 276.664C377.209 269.608 373.289 263.231 368.16 258.406C366.507 256.966 364.944 255.259 362.893 254.412C362.824 242.817 361.944 231.178 359.496 219.824C358.133 213.612 356.373 207.448 353.685 201.669C350.202 194.536 345.057 188.348 339.377 182.855C339.094 182.61 338.828 182.331 338.484 182.188C335.984 179.573 333.012 177.449 330.086 175.337C318.054 166.922 303.32 161.823 288.533 162.932C279.128 163.579 269.989 166.718 261.918 171.531ZM364.412 163.894C361.89 164.131 359.541 165.154 357.204 166.063C353.877 167.368 350.668 168.965 347.627 170.839C344.546 172.734 341.39 174.539 338.48 176.696C338.677 176.855 339.07 177.179 339.262 177.338C340.903 178.816 342.532 180.305 344.104 181.861C348.045 185.904 351.732 190.251 354.634 195.113C356.631 191.773 358.207 188.2 359.885 184.693C362.275 179.327 364.763 173.905 365.84 168.093C366.024 168.318 366.396 168.772 366.585 169.001C367.268 167.933 367.244 166.583 367.055 165.375C366.781 164.234 365.459 163.808 364.412 163.894ZM214.938 317.537C214.472 319.473 215.282 321.388 216.604 322.784C217.783 324.135 218.782 325.657 219.309 327.388C219.817 328.927 221.237 329.893 222.432 330.888C226.103 333.613 230.376 335.385 234.678 336.871C234.272 338.152 233.834 339.429 233.372 340.698C227.519 338.627 221.556 336.11 217.161 331.579C215.72 332.746 214.132 334.084 213.829 336.028C213.494 338.57 214.677 340.996 215.974 343.1C218.945 347.688 223.214 351.404 228.092 353.856C238.271 359.409 247.348 366.797 255.628 374.876C255.931 370.059 256.983 365.27 258.914 360.838C261.079 355.734 264.841 351.269 269.809 348.715C266.531 348.347 263.236 348.167 259.942 348.114C259.925 346.767 259.921 345.421 259.929 344.078C267.73 344.283 275.543 344.971 283.209 346.468C286.814 347.414 290.547 347.803 294.271 347.827C308.616 347.946 322.646 341.61 332.8 331.624C315.938 336.364 298.192 337.583 280.778 336.032C266.032 334.673 251.331 331.469 237.788 325.367C231.006 322.322 224.687 318.286 218.953 313.563C216.752 313.559 215.078 315.409 214.938 317.537ZM337.699 332.381C336.111 334.203 334.33 335.848 332.493 337.415C328.944 340.493 324.921 342.949 320.902 345.327C318.381 346.358 315.987 347.704 313.359 348.457L313.376 348.547C310.511 349.522 307.597 350.356 304.621 350.917L304.601 351.007C301.065 351.486 297.517 351.928 293.94 351.879C291.586 351.83 289.249 351.617 286.917 351.339C286.331 351.216 285.705 351.073 285.14 351.343C281.314 352.783 277.638 355.133 275.416 358.636C272.289 363.068 271.688 368.749 271.982 374.033C272.383 379.198 272.478 384.395 272.072 389.564C271.786 391.541 271.741 393.547 271.503 395.532C270.652 401.008 269.437 406.602 266.408 411.333C270.922 414.698 275.993 417.554 281.535 418.753C283.663 419.511 285.922 419.74 288.148 420.022C295.622 420.767 303.144 419.715 310.425 418.045C311.252 413.867 311.575 409.606 312.185 405.395C312.328 403.41 312.627 401.441 312.807 399.465C313.196 397.709 313.118 395.9 313.388 394.132C313.638 392.024 314.129 389.949 314.288 387.833C314.964 386.036 315.528 384.199 316.126 382.378L316.282 382.365C316.818 380.7 317.46 379.079 318.078 377.442C318.332 376.971 318.594 376.501 318.86 376.038C320.059 376.558 321.262 377.082 322.441 377.659C321.471 380.016 320.333 382.32 319.687 384.792C317.923 389.045 317.501 393.714 316.977 398.253C316.318 404.851 315.516 411.432 314.612 418C314.432 419.081 314.252 420.161 314.076 421.246C313.404 421.434 312.737 421.626 312.078 421.827C311.976 425.686 311.681 429.534 311.112 433.356C313.531 433.184 315.958 433.205 318.373 433.004C316.985 427.843 316.355 422.474 316.728 417.137C317.342 409.668 320.055 402.289 324.97 396.575C328.093 392.822 332.329 389.724 337.281 389.094C341.087 388.656 344.848 389.814 348.139 391.668C350.914 388.648 354.053 385.955 357.54 383.79C363.081 380.315 369.568 378.453 376.096 378.232C379.546 378.035 383.009 378.445 386.459 378.121C386.299 373.472 385.296 368.794 383.164 364.644C381.077 360.515 377.717 357.15 373.886 354.617C366.777 349.886 358.481 347.238 351.573 342.179C346.874 338.836 343.109 334.215 340.879 328.89C339.671 329.914 338.75 331.207 337.699 332.381ZM392.487 335.553C388.247 336.818 384.036 338.799 381.085 342.192C378.728 344.872 377.508 348.457 377.541 352.01C378.728 353.381 380.414 354.298 381.605 355.706C384.822 352.816 388.149 349.599 392.516 348.646C395.164 348.003 398.041 349.247 399.478 351.543C401.311 354.06 401.471 357.572 399.965 360.285C397.648 364.574 393.461 367.39 389.397 369.858C390.019 372.117 390.064 374.507 390.629 376.758C395.152 383.274 399.13 390.207 401.962 397.635C402.973 400.377 403.885 403.164 404.516 406.025C410.061 404.29 415.37 401.761 420.195 398.523C425.953 394.648 430.999 389.454 433.868 383.065C437.008 376.157 437.445 368.217 435.878 360.854C435.19 356.569 433.619 352.415 431.396 348.687C428.319 343.538 423.6 339.413 418.112 337.002C410.115 333.446 400.853 333.143 392.487 335.553ZM269.343 353.659L269.347 353.856C267.976 354.601 266.924 355.767 265.88 356.901L265.872 357.048C264.431 358.738 263.367 360.715 262.487 362.745C260.494 367.652 259.299 373.034 259.786 378.342C259.356 380.368 259.565 382.447 259.426 384.502C257.597 382.861 255.976 381.011 254.245 379.275C251.163 376.034 247.856 373.014 244.434 370.136C242.466 368.462 240.501 366.748 238.291 365.393C238.991 378.039 242.4 390.706 249.182 401.478C252.219 406.475 256.201 410.797 260.179 415.05C261.141 416.445 262.745 415.107 263.834 414.587C262.807 413.699 261.734 412.868 260.654 412.05C261.98 410.367 263.486 408.788 264.345 406.799C265.688 403.717 266.605 400.459 267.137 397.144C267.223 396.051 267.738 394.914 267.378 393.837C267.46 392.425 267.89 391.075 268.074 389.687C268.18 386.941 268.34 384.195 268.291 381.449C268.303 377.09 267.693 372.756 267.705 368.401C267.738 365.09 268.336 361.812 269.482 358.714C270.865 355.636 273.157 353.135 275.776 351.065C273.456 351.408 271.319 352.431 269.343 353.659ZM384.331 358.73C385.882 360.957 387.196 363.338 388.198 365.864C391.444 363.711 395.07 361.472 396.682 357.756C397.755 355.435 395.757 351.703 392.938 352.652C389.491 353.68 386.909 356.365 384.331 358.73ZM223.922 356.242C223.906 363.31 223.664 370.435 222.203 377.376C221.327 381.596 219.874 385.75 217.472 389.36C216.952 389.859 217.57 390.309 217.914 390.649C220.263 392.81 222.694 394.901 225.367 396.661C231.203 400.557 238.181 402.849 245.216 402.853C237.89 390.641 234.42 376.406 234.055 362.242C230.826 360.003 227.442 357.981 223.922 356.242ZM381.003 382.238C376.604 382.099 372.139 382.32 367.89 383.556C361.498 385.349 355.85 389.257 351.385 394.111C353.247 395.753 354.892 397.615 356.39 399.591C359.271 403.709 361.571 408.325 362.508 413.294C361.195 413.515 359.885 413.777 358.579 414.03C357.09 407.347 353.435 401.077 348.159 396.686C345.34 394.394 341.75 392.736 338.046 393.092C334.474 393.416 331.367 395.577 328.981 398.139C324.185 403.238 321.537 410.093 320.923 417.01C319.773 429.845 324.925 443.06 334.371 451.81C337.24 454.478 341.01 456.406 345.008 456.279C350.05 456.144 354.663 453.799 359.05 451.536C362.238 449.788 365.48 448.11 368.578 446.219C371.856 444.627 375.04 442.827 378.396 441.386C382.055 439.683 386.005 438.64 389.504 436.593C394.059 434.056 398.008 430.201 400.01 425.326C402.388 419.654 402.171 413.249 400.869 407.343C398.745 397.954 394.137 389.331 388.743 381.436C386.32 382.558 383.59 382.275 381.003 382.238ZM218.941 399.387C216.33 401.028 213.297 401.838 210.76 403.602C206.733 406.295 203.147 409.831 200.942 414.186C199.452 417.129 198.85 420.759 200.307 423.837C201.961 427.389 205.48 429.574 208.951 431.085C217.554 434.809 227.221 436.643 236.536 434.944C239.155 429.64 243.718 425.633 248.494 422.306C250.037 421.262 251.621 420.276 253.246 419.363C253.561 417.779 253.946 416.204 254.081 414.595C253.905 414.03 253.402 413.658 253.05 413.216C251.187 411.247 249.575 409.07 247.905 406.95C244.504 407.11 241.115 406.7 237.759 406.201C235.725 405.612 233.626 405.19 231.649 404.392C228.322 403.201 225.273 401.396 222.305 399.51C221.741 399.047 221.155 398.609 220.578 398.171C220.03 398.568 219.481 398.969 218.941 399.387ZM260.322 420.411C254.777 422.76 249.579 426.014 245.175 430.135C242.507 432.73 239.928 435.812 239.294 439.593C238.795 442.38 240.109 445.192 242.163 447.042C245.511 450.124 249.931 451.601 254.159 453.042C262.062 455.592 270.403 456.942 278.715 456.558C284.723 456.263 290.788 455.01 296.096 452.084L296.133 451.953C300.418 449.735 303.873 445.79 305.215 441.124C306.999 435.149 307.851 428.916 308.002 422.691C300.058 424.307 291.836 424.839 283.806 423.521C278.13 422.392 272.645 420.305 267.751 417.198C265.401 418.545 262.847 419.461 260.322 420.411Z" fill="#262262"/>
<path d="M299.898 170.622C300.079 170.066 300.263 169.513 300.451 168.961C300.467 169.497 300.476 170.037 300.492 170.577C300.627 175.865 300.574 181.157 300.832 186.44C306.34 188.118 311.825 189.882 317.284 191.704C311.505 191.806 305.731 191.912 299.952 191.986C298.114 197.442 296.518 202.979 294.603 208.41C294.455 202.66 294.422 196.91 294.283 191.159C288.77 189.416 283.27 187.623 277.753 185.888C283.54 185.655 289.335 185.679 295.126 185.532C296.718 180.563 298.311 175.591 299.898 170.622Z" fill="#262262"/>
<path d="M262.921 213.01C264.808 212.261 267.063 212.584 268.659 213.845C270.763 215.466 271.851 218.065 272.301 220.618C272.977 224.83 272.146 229.336 269.772 232.905C268.348 235.008 266.183 236.879 263.547 237.071C261.153 237.28 258.943 235.782 257.715 233.813C255.657 230.584 255.341 226.516 256.029 222.824C256.823 218.838 258.98 214.631 262.921 213.01ZM262.892 217.864C261.775 218.114 261.243 219.599 261.939 220.508C262.647 221.719 264.697 221.347 265.025 220.013C265.43 218.769 264.141 217.451 262.892 217.864ZM265.749 221.507C264.411 222.693 264.116 224.633 264.112 226.332C264.165 227.977 264.501 229.872 265.88 230.944C266.944 231.71 268.18 230.715 268.602 229.708C269.662 227.404 269.649 224.535 268.409 222.305C267.935 221.367 266.641 220.7 265.749 221.507Z" fill="#262262"/>
<path d="M320.972 222.796C322.887 222.022 325.179 222.358 326.787 223.655C328.981 225.386 330.061 228.157 330.454 230.854C331.023 235.217 330.025 239.887 327.319 243.411C325.801 245.375 323.485 247.004 320.898 246.848C318.352 246.73 316.29 244.79 315.221 242.592C313.273 238.61 313.412 233.834 314.923 229.733C316.024 226.827 317.992 223.987 320.972 222.796ZM319.261 227.2C318.25 227.691 318.021 229.197 318.852 229.962C319.699 230.899 321.467 230.429 321.733 229.184C322.224 227.797 320.509 226.446 319.261 227.2ZM322.658 230.58C321.283 231.37 320.882 233.097 320.706 234.554C320.566 236.474 320.787 238.7 322.253 240.104C323.108 240.939 324.43 240.341 324.921 239.412C326.186 237.247 326.198 234.439 325.257 232.152C324.86 231.165 323.816 230.028 322.658 230.58Z" fill="#262262"/>
<path d="M275.22 250.601C278.666 249.881 282.222 249.975 285.713 250.278C291.099 250.753 296.502 251.956 301.331 254.449C303.038 255.378 304.789 256.458 305.825 258.157C306.459 259.159 306.435 260.526 305.69 261.468C304.585 262.912 302.866 263.702 301.229 264.377C296.702 266.088 291.853 266.964 287.011 266.837C286.671 268.908 286.299 270.979 285.705 272.997C287.412 275.518 290.408 276.872 293.395 277.016C298.11 277.269 302.669 275.636 306.909 273.741C307.478 274.957 308.043 276.177 308.604 277.4C305.772 278.694 302.837 279.782 299.801 280.49C299.747 283.957 298.397 287.382 296.019 289.92C293.375 292.801 289.536 294.405 285.668 294.676C281.42 294.995 276.841 294.18 273.55 291.295C269.089 287.427 267.268 281.325 267.137 275.583C265.127 274.45 263.327 272.857 262.312 270.754C263.502 270.177 264.681 269.587 265.856 268.982C268.037 272.628 272.67 273.737 276.648 273.52C278.461 273.336 280.594 273.099 281.858 271.63C282.476 269.919 282.677 268.089 283.012 266.309C278.032 265.261 273.341 262.622 270.116 258.648C268.77 257.203 268.917 254.788 270.084 253.282C271.336 251.723 273.329 251.031 275.22 250.601ZM287.964 254.506C288.947 255.803 290.743 256.045 292.25 256.258C293.555 256.323 295.368 256.458 295.986 255.013C294.177 253.217 291.349 252.832 288.943 253.311C288.464 253.429 287.539 253.884 287.964 254.506ZM277.102 277.875C275.187 278.211 273.239 278.01 271.324 277.826C271.888 282.373 273.755 287.374 278.122 289.519C281.617 291.082 285.799 291.131 289.356 289.74C292.859 288.336 295.438 284.923 295.757 281.153C291.116 281.305 286.07 279.999 283.082 276.201C281.089 276.758 279.165 277.597 277.102 277.875Z" fill="#262262"/>
<path d="M232.922 135.086C234.673 133.8 237.059 133.944 238.991 134.73C242.85 136.256 245.822 139.272 248.781 142.072C255.922 148.98 262.97 155.987 269.809 163.19C265.745 164.803 261.82 166.779 258.161 169.165C255.157 165.621 252.255 161.987 248.998 158.672C246.661 156.343 244.295 153.908 241.295 152.451C239.85 151.677 237.685 151.776 236.883 153.396C235.713 155.958 235.778 158.868 235.696 161.627C235.77 170.291 236.957 178.902 238.267 187.451C236.425 189.862 234.731 192.379 233.044 194.9C230.646 183.13 228.735 171.224 228.145 159.216C227.912 153.458 227.818 147.609 229.115 141.961C229.762 139.42 230.72 136.694 232.922 135.086Z" fill="#F9A529"/>
<path d="M363.531 149.913C367.137 148.538 371.029 147.269 374.929 147.916C377.213 148.276 379.206 149.95 379.906 152.16C381.069 155.704 380.414 159.519 379.64 163.075C377.745 170.798 374.573 178.141 371.095 185.266C367.616 192.199 363.908 199.046 359.627 205.512C358.604 202.66 357.401 199.869 355.919 197.217C359.582 190.292 363.085 183.248 365.762 175.873C366.834 172.722 367.947 169.485 367.939 166.116C367.951 164.888 367.534 163.44 366.286 162.953C364.022 162.11 361.628 163.157 359.484 163.894C351.749 167.041 344.676 171.56 337.645 176.004C334.355 173.299 330.81 170.929 327.213 168.658C334.432 164.7 341.709 160.853 349.006 157.039C353.815 154.604 358.534 151.96 363.531 149.913Z" fill="#F9A529"/>
<path d="M270.664 174.478C279.95 170.958 290.043 170.062 299.898 170.622C298.31 175.591 296.718 180.564 295.126 185.532C289.335 185.679 283.54 185.655 277.753 185.888C283.27 187.623 288.77 189.416 294.283 191.159C294.422 196.91 294.455 202.66 294.602 208.41C296.518 202.979 298.114 197.442 299.951 191.986C305.73 191.913 311.505 191.806 317.284 191.704C311.824 189.883 306.34 188.119 300.831 186.441C300.573 181.157 300.627 175.865 300.492 170.577C312.184 171.253 323.742 174.449 334.064 179.999C335.48 180.834 336.888 181.714 338.484 182.188C338.828 182.332 339.094 182.61 339.376 182.855C345.057 188.348 350.201 194.536 353.684 201.669C356.373 207.448 358.133 213.612 359.496 219.825C361.943 231.178 362.823 242.817 362.893 254.412C353.39 251.604 343.317 251.944 333.56 252.902C325.919 253.561 318.319 255.374 310.613 254.719C307.736 254.432 304.666 253.732 302.558 251.608C300.549 249.595 299.964 246.64 299.853 243.898C299.591 236.375 302.112 228.959 301.02 221.429C300.713 219.62 300.307 217.602 298.85 216.346C297.692 215.343 295.981 215.867 294.938 216.771C292.617 218.707 291.279 221.527 290.153 224.269C288.013 229.663 286.515 235.557 282.545 239.981C279.435 243.538 274.753 245.351 270.112 245.69C261.938 246.333 253.962 243.955 246.214 241.68C238.049 239.49 229.59 237.996 221.11 238.487C222.08 231.391 224.167 224.486 226.492 217.725C226.696 217.14 226.893 216.542 227.224 216.014C227.748 215.237 228.284 214.463 228.739 213.641C232.164 207.317 236.294 201.379 241.004 195.952C249.022 186.629 259.078 178.804 270.664 174.478ZM259.225 195.813C257.527 196.238 255.484 196.889 254.784 198.67C254.281 200.45 255.828 201.927 257.158 202.84C260.743 205.173 265.09 206.073 269.314 206.278C272.109 206.323 275.084 206.147 277.544 204.682C278.718 204.019 279.517 202.513 278.837 201.223C277.753 199.136 275.485 198.052 273.41 197.18C268.921 195.498 263.948 194.872 259.225 195.813ZM318.585 204.452C316.854 204.845 314.845 205.414 313.928 207.08C313.212 208.529 314.284 210.051 315.385 210.948C317.992 213.051 321.315 214.021 324.565 214.611C328.269 215.167 332.243 215.331 335.758 213.833C337.101 213.272 338.517 211.926 338.001 210.325C337.236 208.218 335.071 207.092 333.159 206.196C328.596 204.293 323.468 203.597 318.585 204.452ZM262.921 213.01C258.979 214.631 256.823 218.838 256.029 222.825C255.341 226.516 255.656 230.584 257.715 233.813C258.943 235.782 261.153 237.28 263.547 237.071C266.183 236.879 268.348 235.008 269.772 232.905C272.146 229.336 272.976 224.83 272.301 220.619C271.851 218.065 270.762 215.466 268.659 213.845C267.063 212.585 264.807 212.261 262.921 213.01ZM320.971 222.796C317.992 223.987 316.023 226.827 314.922 229.733C313.412 233.834 313.273 238.61 315.221 242.592C316.289 244.79 318.352 246.73 320.898 246.849C323.484 247.004 325.801 245.375 327.319 243.411C330.024 239.887 331.023 235.217 330.454 230.854C330.061 228.157 328.981 225.387 326.787 223.655C325.179 222.358 322.887 222.022 320.971 222.796Z" fill="#F9A529"/>
<path d="M392.487 335.554C400.853 333.143 410.114 333.446 418.111 337.002C423.6 339.413 428.319 343.538 431.396 348.687C433.619 352.415 435.19 356.569 435.878 360.854C435.366 366.687 433.385 372.302 430.631 377.438C427.783 382.894 423.338 387.42 418.173 390.727C413.208 393.931 407.647 396.109 401.962 397.635C399.13 390.207 395.152 383.274 390.629 376.759C390.064 374.508 390.019 372.118 389.397 369.858C393.461 367.39 397.648 364.575 399.965 360.286C401.471 357.572 401.311 354.061 399.477 351.544C398.041 349.248 395.164 348.003 392.516 348.646C388.149 349.6 384.822 352.816 381.605 355.706C380.414 354.298 378.728 353.381 377.541 352.01C377.508 348.458 378.728 344.873 381.085 342.192C384.036 338.799 388.247 336.818 392.487 335.554Z" fill="#F9A529"/>
<path d="M381.003 382.239C383.59 382.276 386.319 382.558 388.742 381.437C394.136 389.331 398.745 397.955 400.869 407.343C402.17 413.249 402.387 419.654 400.009 425.326C398.008 430.201 394.059 434.056 389.504 436.594C386.004 438.64 382.055 439.684 378.396 441.386C375.04 442.827 371.856 444.628 368.578 446.22C372.662 440.228 374.017 432.767 373.579 425.621C373.178 419.355 372.024 412.848 368.389 407.581C365.623 403.488 361.248 400.537 356.39 399.592C354.892 397.615 353.246 395.753 351.384 394.112C355.849 389.258 361.497 385.349 367.89 383.557C372.138 382.321 376.603 382.1 381.003 382.239Z" fill="#F9A529"/>
<path d="M218.941 399.387C219.481 398.97 220.03 398.569 220.578 398.172C221.155 398.609 221.74 399.047 222.305 399.51C221.188 399.395 220.062 399.35 218.941 399.387Z" fill="#F9A529"/>
<path d="M237.759 406.201C241.115 406.701 244.504 407.11 247.905 406.95C249.574 409.07 251.187 411.248 253.049 413.216C253.401 413.658 253.904 414.031 254.08 414.595C253.945 416.204 253.561 417.779 253.246 419.363C251.621 420.276 250.037 421.262 248.494 422.306C246.836 415.901 242.453 410.666 237.759 406.201Z" fill="#F9A529"/>
<path d="M283.806 423.522C291.836 424.839 300.058 424.307 308.002 422.691C307.85 428.916 306.999 435.149 305.215 441.124C303.872 445.79 300.418 449.735 296.133 451.953C297.598 448.102 297.369 443.797 295.895 439.986C293.452 433.528 288.864 428.114 283.806 423.522Z" fill="#F9A529"/>
<path d="M237.645 154.129C238.099 153.425 239.028 153.175 239.818 153.372C241.426 153.793 242.818 154.763 244.14 155.741C249.358 159.408 253.225 164.577 257.159 169.517C256.905 169.779 256.651 170.041 256.401 170.299C253.704 166.935 250.929 163.628 247.954 160.509C245.85 158.365 243.718 156.175 241.123 154.628C240.44 154.293 239.634 153.806 238.86 154.108C238.23 154.968 238.148 156.073 237.956 157.088C237.931 157.292 237.882 157.702 237.862 157.902C237.452 158.193 237.051 158.488 236.646 158.782C236.773 157.207 236.756 155.5 237.645 154.129Z" fill="#211339"/>
<path d="M364.411 163.894C365.459 163.808 366.781 164.234 367.055 165.376C367.243 166.583 367.268 167.933 366.584 169.002C366.396 168.772 366.024 168.318 365.84 168.093L365.901 167.635C365.881 166.71 366.134 165.597 365.537 164.819C363.928 164.369 362.287 165.048 360.773 165.547C353.152 168.584 346.207 173.029 339.262 177.338C339.069 177.179 338.676 176.856 338.48 176.696C341.39 174.539 344.545 172.734 347.627 170.839C350.668 168.965 353.877 167.369 357.204 166.063C359.541 165.155 361.89 164.131 364.411 163.894Z" fill="#211339"/>
<path d="M238.86 154.108C239.634 153.805 240.44 154.292 241.123 154.628C243.718 156.175 245.85 158.365 247.954 160.509C250.929 163.628 253.704 166.935 256.401 170.299C254.539 171.523 252.771 172.877 251.036 174.269C248.707 169.349 246.28 164.418 243.035 160.026C241.856 158.356 240.096 157.014 237.956 157.088C238.148 156.073 238.23 154.968 238.86 154.108Z" fill="#CF1748"/>
<path d="M360.773 165.547C362.287 165.048 363.928 164.369 365.537 164.819C366.134 165.596 365.881 166.71 365.901 167.635C363.298 166.685 360.638 167.987 358.497 169.415C353.251 173.012 348.671 177.461 344.103 181.861C342.532 180.306 340.903 178.816 339.262 177.338C346.207 173.029 353.152 168.584 360.773 165.547Z" fill="#CF1748"/>
<path d="M237.956 157.088C240.096 157.014 241.856 158.357 243.035 160.026C246.28 164.418 248.707 169.35 251.036 174.269C246.988 177.551 243.358 181.312 239.978 185.27C238.738 176.213 237.281 167.07 237.862 157.902C237.882 157.702 237.931 157.292 237.956 157.088Z" fill="#EE2A7B"/>
<path d="M358.497 169.415C360.638 167.987 363.298 166.685 365.901 167.635L365.84 168.093C364.763 173.905 362.275 179.328 359.885 184.693C358.207 188.2 356.631 191.773 354.634 195.113C351.732 190.251 348.045 185.904 344.104 181.861C348.671 177.461 353.251 173.013 358.497 169.415Z" fill="#EE2A7B"/>
<path d="M277.103 277.875C279.165 277.597 281.089 276.758 283.082 276.201C286.07 279.999 291.116 281.305 295.757 281.153C295.438 284.923 292.859 288.336 289.356 289.74C285.8 291.131 281.617 291.082 278.122 289.519C273.755 287.374 271.889 282.373 271.324 277.826C273.239 278.01 275.187 278.211 277.103 277.875Z" fill="#EE2A7B"/>
<path d="M261.918 171.531C269.989 166.718 279.128 163.579 288.533 162.932C303.32 161.823 318.054 166.923 330.086 175.337C333.012 177.449 335.984 179.573 338.484 182.188C336.888 181.714 335.48 180.834 334.064 179.999C323.742 174.449 312.185 171.253 300.492 170.577C300.475 170.037 300.467 169.497 300.451 168.961C300.263 169.513 300.078 170.066 299.898 170.622C290.043 170.062 279.951 170.958 270.664 174.478C259.078 178.804 249.022 186.629 241.005 195.952C236.294 201.379 232.164 207.317 228.739 213.641C228.285 214.463 227.748 215.237 227.225 216.014C229.046 210.686 231.567 205.611 234.305 200.695C240.951 188.941 250.221 178.448 261.918 171.531Z" fill="#FCB160"/>
<path d="M259.225 195.813C263.948 194.872 268.921 195.498 273.41 197.18C275.485 198.052 277.753 199.136 278.837 201.223C279.517 202.513 278.718 204.019 277.544 204.682C275.084 206.147 272.109 206.323 269.313 206.278C265.09 206.073 260.743 205.173 257.158 202.84C255.828 201.927 254.281 200.45 254.784 198.67C255.484 196.889 257.526 196.238 259.225 195.813Z" fill="white"/>
<path d="M318.586 204.453C323.468 203.597 328.596 204.293 333.16 206.196C335.071 207.092 337.236 208.218 338.001 210.326C338.517 211.926 337.101 213.272 335.759 213.833C332.243 215.331 328.269 215.167 324.565 214.611C321.315 214.021 317.992 213.051 315.385 210.948C314.284 210.051 313.212 208.529 313.928 207.08C314.845 205.414 316.854 204.845 318.586 204.453Z" fill="white"/>
<path d="M294.938 216.772C295.982 215.867 297.692 215.343 298.851 216.346C300.308 217.602 300.713 219.62 301.02 221.429C302.113 228.96 299.591 236.376 299.853 243.898C299.964 246.64 300.549 249.595 302.559 251.608C304.666 253.733 307.736 254.432 310.613 254.719C318.32 255.374 325.92 253.561 333.561 252.902C343.318 251.944 353.39 251.604 362.893 254.412C364.943 255.259 366.507 256.966 368.16 258.406C368.602 265.712 368.676 273.087 367.522 280.335C366.568 285.267 363.671 289.544 360.417 293.264C355.522 298.777 349.305 302.931 342.822 306.344C327.238 314.177 309.553 317.12 292.22 316.654C276.161 316.105 260.253 312.778 245.142 307.371C236.02 304.036 227.094 299.824 219.44 293.763C214.545 289.789 210.093 285.123 207.105 279.525C202.513 271.09 201.625 260.768 204.633 251.658C204.969 250.634 205.177 249.579 205.321 248.519C209.36 244.463 214.443 241.585 219.727 239.478C220.247 239.253 220.873 239.073 221.11 238.487C229.59 237.996 238.05 239.49 246.215 241.68C253.962 243.955 261.939 246.333 270.112 245.69C274.753 245.351 279.435 243.538 282.545 239.981C286.515 235.557 288.013 229.664 290.154 224.269C291.279 221.527 292.617 218.707 294.938 216.772ZM275.219 250.602C273.329 251.031 271.336 251.723 270.083 253.282C268.917 254.789 268.769 257.203 270.116 258.648C273.341 262.622 278.031 265.262 283.012 266.309C282.676 268.09 282.476 269.919 281.858 271.63C280.593 273.099 278.461 273.337 276.648 273.521C272.67 273.738 268.037 272.629 265.855 268.982C264.681 269.588 263.502 270.177 262.311 270.754C263.326 272.858 265.127 274.45 267.136 275.583C267.267 281.325 269.089 287.428 273.55 291.295C276.84 294.181 281.42 294.995 285.668 294.676C289.536 294.406 293.375 292.801 296.018 289.92C298.396 287.383 299.747 283.957 299.8 280.491C302.837 279.783 305.771 278.694 308.604 277.401C308.043 276.177 307.478 274.957 306.909 273.742C302.669 275.637 298.11 277.27 293.395 277.016C290.407 276.873 287.412 275.518 285.705 272.997C286.298 270.979 286.671 268.908 287.011 266.837C291.852 266.964 296.702 266.088 301.228 264.378C302.866 263.702 304.584 262.912 305.69 261.468C306.434 260.526 306.459 259.159 305.825 258.157C304.789 256.458 303.037 255.378 301.331 254.449C296.501 251.956 291.099 250.753 285.713 250.278C282.222 249.975 278.666 249.881 275.219 250.602ZM248.989 254.707C247.835 254.834 247.606 256.381 248.359 257.093C249.108 257.793 250.61 257.281 250.545 256.164C250.749 255.226 249.824 254.592 248.989 254.707ZM240.608 261.091C240.235 262.38 242.224 263.293 242.957 262.229C243.579 261.476 242.985 260.621 242.654 259.904C241.876 260.044 240.616 259.994 240.608 261.091ZM323.841 261.275C323.161 261.742 322.736 262.786 323.448 263.428C324.193 264.537 325.977 263.535 325.813 262.339C325.58 261.496 324.688 260.915 323.841 261.275ZM249.759 264.112C248.752 264.857 249.567 266.846 250.876 266.44C251.924 266.477 252.3 265.032 251.789 264.284C251.269 263.69 250.389 263.731 249.759 264.112ZM328.78 269.035C328.077 269.772 328.269 271.352 329.456 271.401C330.209 271.605 331.203 270.991 331.052 270.136C331.265 268.871 329.66 268.487 328.78 269.035ZM242.433 269.444C241.557 269.739 241.156 271.069 241.942 271.675C242.49 272.322 243.636 272.203 244.037 271.446C244.794 270.447 243.554 268.994 242.433 269.444ZM319.371 269.416C318.7 269.825 318.708 270.836 319.138 271.413C319.985 272.301 321.856 271.507 321.516 270.23C321.426 269.182 320.141 268.867 319.371 269.416ZM324.667 277.208C323.038 277.855 324.057 280.491 325.666 279.791C327.307 279.185 326.304 276.574 324.667 277.208Z" fill="white"/>
<path d="M265.749 221.507C266.641 220.7 267.934 221.368 268.409 222.305C269.649 224.535 269.661 227.404 268.601 229.708C268.18 230.715 266.944 231.71 265.88 230.944C264.501 229.872 264.165 227.977 264.112 226.332C264.116 224.634 264.411 222.694 265.749 221.507Z" fill="white"/>
<path d="M322.658 230.58C323.816 230.028 324.86 231.165 325.257 232.152C326.198 234.44 326.186 237.247 324.921 239.412C324.43 240.341 323.108 240.939 322.252 240.104C320.787 238.7 320.566 236.474 320.705 234.554C320.881 233.097 321.283 231.37 322.658 230.58Z" fill="white"/>
<path d="M287.964 254.506C287.538 253.884 288.463 253.43 288.942 253.311C291.349 252.832 294.177 253.217 295.986 255.014C295.368 256.458 293.555 256.323 292.249 256.258C290.743 256.045 288.946 255.803 287.964 254.506Z" fill="white"/>
<path d="M248.384 336.311C248.891 335.582 249.305 334.42 250.332 334.387C250.553 335.214 250.631 336.073 250.7 336.929C250.344 336.618 249.996 336.294 249.657 335.979C249.231 336.09 248.809 336.2 248.384 336.311ZM249.738 335.312C249.992 335.48 249.992 335.48 249.738 335.312V335.312Z" fill="white"/>
<path d="M245.228 345.495C246.501 343.006 247.63 340.448 249.026 338.03C248.6 340.788 248.252 343.559 247.872 346.321C250.377 347.606 252.939 348.773 255.402 350.136C252.632 349.718 249.853 349.383 247.082 348.973C245.768 351.466 244.598 354.032 243.268 356.516C243.632 353.737 244.017 350.958 244.401 348.183C241.921 346.89 239.371 345.724 236.912 344.394C239.686 344.725 242.449 345.163 245.228 345.495Z" fill="white"/>
<path d="M233.793 342.822C234.64 342.961 236.171 343.411 235.586 344.59C235.242 345.581 234.01 345.024 233.277 344.95C233.441 344.238 233.621 343.53 233.793 342.822ZM234.231 343.579C233.638 343.98 234.247 345.089 234.873 344.561C235.446 344.16 234.828 343.104 234.231 343.579Z" fill="white"/>
<path d="M255.833 351.834C256.037 351.118 256.254 350.402 256.471 349.69C257.028 349.902 257.592 350.136 258.149 350.365C258.051 350.95 257.948 351.531 257.867 352.129C257.175 352.121 256.496 352.002 255.833 351.834ZM256.786 350.43C256.958 351.785 257.928 349.71 256.786 350.43V350.43ZM256.68 351.228C256.729 352.587 257.912 350.639 256.68 351.228V351.228Z" fill="white"/>
<path d="M242.085 358.26C242.596 357.31 243.779 357.818 244.344 358.44C243.591 358.436 242.064 357.953 242.666 359.291C242.965 359.373 243.562 359.528 243.861 359.61C243.018 360.56 241.361 359.332 242.085 358.26Z" fill="white"/>
<path d="M430.631 377.438C433.385 372.302 435.366 366.687 435.878 360.854C437.445 368.217 437.008 376.157 433.868 383.065C430.999 389.454 425.953 394.648 420.195 398.524C415.37 401.761 410.061 404.29 404.516 406.025C403.885 403.165 402.973 400.378 401.962 397.635C407.647 396.109 413.209 393.932 418.173 390.727C423.338 387.42 427.783 382.894 430.631 377.438Z" fill="white"/>
<path d="M417.313 404.978C423.661 401.577 429.452 396.997 433.766 391.194C427.766 401.028 417.661 408.383 406.3 410.589C405.976 410.507 405.326 410.351 405.002 410.274C409.185 408.71 413.397 407.159 417.313 404.978Z" fill="white"/>
<path d="M328.981 398.139C331.367 395.577 334.473 393.416 338.046 393.093C341.75 392.736 345.34 394.394 348.159 396.686C353.435 401.077 357.09 407.347 358.579 414.031C359.885 413.777 361.195 413.515 362.508 413.294C361.571 408.325 359.271 403.709 356.39 399.592C361.248 400.537 365.623 403.488 368.39 407.581C372.024 412.848 373.178 419.355 373.579 425.621C374.017 432.767 372.662 440.228 368.578 446.22C365.48 448.11 362.238 449.788 359.05 451.536C354.663 453.799 350.05 456.144 345.008 456.279C341.01 456.406 337.24 454.479 334.371 451.81C324.925 443.06 319.773 429.845 320.923 417.01C321.537 410.094 324.184 403.238 328.981 398.139ZM334.944 397.955C333.168 399.047 332.497 401.221 332.173 403.169C331.809 406.058 332.092 409.332 334.027 411.653C334.879 412.733 336.577 413.081 337.658 412.128C339.43 410.626 339.986 408.174 340.146 405.956C340.244 403.472 339.859 400.774 338.247 398.785C337.49 397.82 336.066 397.271 334.944 397.955ZM345.945 404.114C344.243 404.871 343.383 406.717 342.859 408.403C342.27 410.601 342.11 413.114 343.224 415.185C343.707 416.143 344.877 416.826 345.937 416.376C347.501 415.713 348.348 414.076 348.896 412.561C349.616 410.294 349.837 407.687 348.786 405.489C348.319 404.437 347.095 403.607 345.945 404.114ZM325.936 406.095C324.463 407.356 324.152 409.471 324.197 411.309C324.299 412.971 324.708 414.923 326.219 415.876C327.344 416.511 328.535 415.512 328.993 414.51C330.102 412.189 330.086 409.283 328.846 407.024C328.339 405.993 326.935 405.231 325.936 406.095ZM334.146 416.449C330.037 417.776 327.909 422.134 327.262 426.129C326.259 432.501 327.905 439.34 331.895 444.443C334.068 447.169 337.318 449.51 340.964 449.248C343.94 449.072 346.432 446.928 347.779 444.378C349.993 440.232 350.189 435.284 349.289 430.749C348.323 426.092 346.125 421.504 342.381 418.459C340.13 416.613 337.015 415.537 334.146 416.449Z" fill="white"/>
<path d="M210.76 403.603C213.297 401.839 216.33 401.028 218.941 399.387C220.062 399.35 221.188 399.395 222.305 399.51C225.272 401.397 228.321 403.202 231.649 404.392C233.625 405.191 235.725 405.612 237.759 406.201C242.453 410.667 246.837 415.901 248.494 422.306C243.718 425.634 239.155 429.64 236.535 434.944C227.22 436.643 217.553 434.809 208.951 431.085C205.48 429.575 201.96 427.389 200.307 423.837C198.85 420.759 199.451 417.129 200.941 414.186C203.147 409.832 206.732 406.296 210.76 403.603Z" fill="white"/>
<path d="M260.322 420.411C262.847 419.462 265.401 418.545 267.75 417.198C272.645 420.305 278.129 422.392 283.806 423.522C288.864 428.114 293.452 433.528 295.895 439.987C297.369 443.797 297.598 448.102 296.133 451.954L296.096 452.085C290.788 455.011 284.722 456.263 278.714 456.558C270.402 456.943 262.061 455.592 254.158 453.042C249.931 451.602 245.51 450.124 242.163 447.042C240.108 445.192 238.794 442.381 239.294 439.594C239.928 435.812 242.506 432.73 245.175 430.135C249.579 426.014 254.776 422.76 260.322 420.411Z" fill="white"/>
<path d="M262.893 217.864C264.141 217.451 265.43 218.769 265.025 220.013C264.698 221.347 262.647 221.72 261.939 220.508C261.243 219.6 261.775 218.114 262.893 217.864Z" fill="#1C75BC"/>
<path d="M319.261 227.2C320.509 226.447 322.224 227.797 321.733 229.185C321.467 230.429 319.699 230.899 318.852 229.962C318.021 229.197 318.25 227.691 319.261 227.2Z" fill="#1C75BC"/>
<path d="M337.699 332.382C338.751 331.207 339.672 329.914 340.879 328.891C343.109 334.215 346.875 338.836 351.573 342.18C358.482 347.238 366.777 349.886 373.886 354.617C377.717 357.151 381.077 360.515 383.164 364.644C385.297 368.794 386.299 373.472 386.459 378.121C383.009 378.445 379.547 378.036 376.096 378.232C369.569 378.453 363.082 380.315 357.54 383.79C354.053 385.955 350.914 388.648 348.139 391.668C344.849 389.814 341.088 388.656 337.281 389.094C340.875 385.521 344.828 382.124 349.621 380.295C352.956 378.969 356.57 378.33 360.16 378.551C361.964 378.563 363.945 378.789 365.582 377.847C367.076 376.828 366.687 374.765 366.208 373.3C365.091 370.178 363.36 367.3 361.441 364.603C357.577 359.213 351.663 355.906 346.142 352.481C343.314 350.881 340.736 348.904 338.423 346.624C340.687 351.306 343.253 356.091 343.498 361.395C343.641 363.699 342.823 366.093 341.01 367.587C338.444 369.723 335.161 370.681 332.387 372.494C327.369 375.678 323.252 380.082 319.687 384.793C320.334 382.321 321.471 380.016 322.441 377.659C321.263 377.082 320.059 376.558 318.86 376.038C318.594 376.501 318.332 376.971 318.079 377.442C313.888 378.109 309.91 380.176 307.339 383.61C308.011 380.16 309.66 377.016 311.285 373.939C315.144 366.871 321.455 361.653 327.504 356.533C328.85 355.399 330.107 354.048 331.789 353.426C332.546 353.062 333.234 353.754 333.729 354.245C335.779 356.545 336.242 359.766 336.172 362.737C337.695 362.078 339.23 360.989 339.606 359.271C340.093 356.741 340.052 354.065 339.209 351.617C337.609 346.628 335.824 341.549 332.493 337.416C334.331 335.848 336.111 334.203 337.699 332.382Z" fill="#1C75BC"/>
<path d="M313.36 348.458C315.987 347.705 318.381 346.358 320.902 345.327C320.297 348.4 319.933 351.617 318.381 354.4C316.233 358.239 312.918 361.206 310.249 364.661C302.42 374.982 298.63 387.878 297.681 400.672C296.436 400.508 295.192 400.341 293.952 400.173C294.91 394.787 296.252 389.47 297.938 384.269C299.952 378.658 303.279 373.464 304.176 367.489C304.487 365.88 304.065 364.28 303.946 362.684C306.083 360.932 308.489 359.471 310.339 357.38C312.541 355.076 314.219 351.797 313.376 348.548L313.36 348.458Z" fill="#1C75BC"/>
<path d="M285.141 351.343C285.705 351.073 286.331 351.216 286.917 351.339C286.63 351.363 286.053 351.421 285.763 351.445C284.772 356.324 282.91 360.965 281.883 365.835C279.542 375.768 278.428 386.098 279.697 396.268C278.94 396.097 278.187 395.933 277.434 395.769C274.602 383.602 275.04 371.025 275.416 358.636C277.639 355.133 281.314 352.784 285.141 351.343Z" fill="#1C75BC"/>
<path d="M293.94 351.879C297.517 351.928 301.065 351.486 304.601 351.007C304.278 353.692 302.366 356.365 299.551 356.729C297.246 356.86 294.975 356.365 292.704 356.07C293.129 354.675 293.543 353.279 293.94 351.879Z" fill="#1C75BC"/>
<path d="M265.88 356.901C266.924 355.767 267.976 354.601 269.347 353.856C269.339 355.473 269.445 357.093 269.482 358.714C268.336 361.812 267.738 365.09 267.706 368.401C266.576 368.152 265.287 368.193 264.305 367.53C264.423 363.981 265.668 360.58 265.872 357.048L265.88 356.901Z" fill="#1C75BC"/>
<path d="M223.922 356.242C227.442 357.981 230.826 360.003 234.056 362.242C234.42 376.407 237.89 390.641 245.216 402.854C238.181 402.85 231.203 400.558 225.367 396.661C222.694 394.902 220.263 392.81 217.914 390.649C217.57 390.31 216.952 389.859 217.472 389.36C219.874 385.75 221.327 381.596 222.203 377.377C223.664 370.435 223.906 363.31 223.922 356.242Z" fill="#1C75BC"/>
<path d="M349.166 366.674C351.069 367.71 353.214 368.438 354.753 370.034C355.817 371.135 356.996 372.228 357.618 373.66C358.002 374.639 357.258 375.662 356.374 376.038C354.409 376.955 352.166 376.718 350.079 377.123C343.699 378.281 337.936 381.674 333.054 385.844C330.275 388.234 328.13 391.394 324.86 393.174C323.477 394.017 321.799 393.661 320.313 393.358C324.393 385.787 330.111 378.604 338.083 374.917C341.268 373.349 345.066 373.087 347.881 370.796C349.154 369.813 349.211 368.139 349.166 366.674Z" fill="#1C75BC"/>
<path d="M245.212 371.966C244.803 371.426 244.59 370.783 244.435 370.137C247.856 373.014 251.163 376.034 254.245 379.276C255.976 381.011 257.597 382.861 259.426 384.502C259.565 382.447 259.356 380.368 259.786 378.342C260.76 381.576 261.382 384.907 262.504 388.099C260.887 387.379 259.483 386.299 258.112 385.21C253.205 381.445 248.838 376.975 245.212 371.966Z" fill="#1C75BC"/>
<path d="M287.547 370.534L287.694 370.317C289.556 370.247 291.427 370.399 293.277 370.591C294.357 370.685 294.987 371.786 295.024 372.785C295.266 375.961 293.6 378.817 292.949 381.846C292.298 384.838 291.77 387.911 290.428 390.69C289.835 391.861 288.869 393.322 287.342 393.011C286.303 392.855 285.046 393.043 284.162 392.458C284.023 389.962 284.428 387.477 284.682 385.005C285.275 380.123 286.086 375.232 287.547 370.534Z" fill="#1C75BC"/>
<path d="M265.729 388.783C266.511 389.082 267.288 389.38 268.074 389.687C267.89 391.075 267.46 392.425 267.378 393.837C266.687 392.2 266.11 390.518 265.729 388.783Z" fill="#1C75BC"/>
<path d="M271.504 395.532C272.183 395.749 272.866 395.961 273.554 396.182C274.88 397.865 276.673 399.092 278.408 400.316C278.383 400.091 278.33 399.645 278.306 399.424C278.641 400.472 279.468 401.167 280.454 401.597C280.458 401.352 280.467 400.856 280.471 400.611C280.593 401.016 280.72 401.425 280.855 401.834C284.805 403.512 289.204 403.189 293.383 403.742C294.77 403.881 296.154 404.065 297.545 404.204C299.702 404.413 301.859 404.617 304.016 404.793C303.729 406.709 303.578 408.677 302.886 410.503C302.326 412.017 300.926 412.954 299.649 413.822C294.345 417.325 287.907 419.232 281.535 418.754C275.993 417.554 270.922 414.698 266.408 411.334C269.437 406.602 270.652 401.008 271.504 395.532Z" fill="#1C75BC"/>
<path d="M197.27 264.357C198.036 258.361 200.95 252.685 205.321 248.518C205.177 249.578 204.969 250.634 204.633 251.658C201.625 260.768 202.513 271.09 207.105 279.525C210.093 285.123 214.546 289.789 219.44 293.763C227.094 299.824 236.02 304.036 245.142 307.371C260.253 312.778 276.161 316.105 292.221 316.653C309.553 317.12 327.238 314.177 342.823 306.344C349.305 302.931 355.522 298.777 360.417 293.264C363.671 289.544 366.568 285.267 367.522 280.335C368.676 273.087 368.602 265.712 368.16 258.406C373.288 263.232 377.209 269.608 378.187 276.664C379.19 283.45 377.303 290.358 374.05 296.292C368.496 306.291 360.061 314.628 350.042 320.136C335.173 328.395 318.07 331.772 301.216 332.533C282.23 333.237 262.97 330.761 245.122 324.094C233.024 319.637 222.097 312.209 213.26 302.841C207.862 297.07 203.225 290.493 200.188 283.171C197.753 277.257 196.411 270.75 197.27 264.357Z" fill="#E6E7E8"/>
<path d="M248.989 254.707C249.824 254.592 250.749 255.226 250.545 256.164C250.61 257.281 249.108 257.792 248.359 257.093C247.606 256.381 247.835 254.833 248.989 254.707Z" fill="#E6E7E8"/>
<path d="M240.608 261.091C240.616 259.994 241.876 260.043 242.654 259.904C242.985 260.621 243.579 261.476 242.957 262.229C242.224 263.293 240.235 262.38 240.608 261.091Z" fill="#E6E7E8"/>
<path d="M323.841 261.275C324.688 260.915 325.58 261.496 325.813 262.339C325.977 263.535 324.192 264.537 323.448 263.428C322.735 262.786 323.161 261.742 323.841 261.275Z" fill="#E6E7E8"/>
<path d="M249.759 264.112C250.389 263.731 251.269 263.69 251.789 264.283C252.3 265.032 251.924 266.477 250.876 266.44C249.567 266.846 248.752 264.856 249.759 264.112Z" fill="#E6E7E8"/>
<path d="M328.78 269.035C329.66 268.487 331.265 268.871 331.052 270.136C331.203 270.991 330.209 271.605 329.456 271.401C328.269 271.351 328.077 269.772 328.78 269.035Z" fill="#E6E7E8"/>
<path d="M242.433 269.444C243.554 268.994 244.794 270.447 244.037 271.446C243.636 272.203 242.49 272.322 241.942 271.675C241.156 271.069 241.557 269.739 242.433 269.444Z" fill="#E6E7E8"/>
<path d="M319.371 269.416C320.141 268.867 321.426 269.182 321.516 270.23C321.856 271.507 319.985 272.301 319.138 271.413C318.708 270.836 318.7 269.825 319.371 269.416Z" fill="#E6E7E8"/>
<path d="M324.668 277.208C326.305 276.574 327.307 279.185 325.666 279.791C324.058 280.49 323.039 277.855 324.668 277.208Z" fill="#E6E7E8"/>
<path d="M438.33 353.872C440.597 358.869 441.301 364.513 440.789 369.948C440.83 364.497 439.877 359.086 438.33 353.872Z" fill="#E6E7E8"/>
<path d="M214.938 317.537C215.077 315.409 216.751 313.559 218.953 313.563C224.687 318.286 231.006 322.322 237.788 325.367C251.33 331.469 266.031 334.674 280.777 336.032C298.192 337.583 315.938 336.364 332.799 331.624C322.645 341.611 308.616 347.946 294.271 347.827C290.547 347.803 286.814 347.414 283.208 346.469C275.543 344.971 267.73 344.283 259.929 344.079C259.921 345.421 259.925 346.767 259.941 348.114C263.236 348.167 266.531 348.347 269.809 348.716C264.84 351.269 261.079 355.734 258.914 360.838C256.982 365.27 255.931 370.059 255.628 374.876C247.348 366.797 238.271 359.41 228.092 353.856C223.214 351.404 218.945 347.688 215.974 343.1C214.676 340.997 213.494 338.57 213.829 336.028C214.132 334.084 215.72 332.746 217.161 331.579C221.556 336.11 227.519 338.627 233.372 340.698C233.834 339.429 234.272 338.152 234.677 336.871C230.376 335.386 226.103 333.614 222.432 330.888C221.237 329.893 219.817 328.927 219.309 327.389C218.781 325.657 217.783 324.135 216.604 322.784C215.282 321.389 214.472 319.473 214.938 317.537ZM248.384 336.311C248.809 336.2 249.231 336.09 249.657 335.979C249.996 336.294 250.344 336.618 250.7 336.929C250.631 336.073 250.553 335.214 250.332 334.387C249.305 334.42 248.891 335.582 248.384 336.311ZM245.228 345.495C242.449 345.163 239.687 344.725 236.912 344.394C239.372 345.724 241.921 346.89 244.402 348.183C244.017 350.958 243.632 353.737 243.268 356.516C244.598 354.032 245.768 351.466 247.082 348.973C249.853 349.383 252.632 349.718 255.403 350.136C252.939 348.773 250.377 347.606 247.872 346.321C248.253 343.559 248.601 340.788 249.026 338.03C247.631 340.448 246.501 343.006 245.228 345.495ZM233.793 342.822C233.621 343.53 233.441 344.238 233.278 344.95C234.01 345.024 235.242 345.581 235.586 344.59C236.171 343.411 234.64 342.961 233.793 342.822ZM255.832 351.834C256.495 352.002 257.175 352.121 257.866 352.129C257.948 351.531 258.051 350.95 258.149 350.365C257.592 350.136 257.027 349.902 256.471 349.69C256.254 350.402 256.037 351.118 255.832 351.834ZM242.085 358.26C241.361 359.332 243.018 360.56 243.861 359.61C243.563 359.528 242.965 359.373 242.666 359.291C242.065 357.953 243.591 358.436 244.344 358.44C243.779 357.818 242.597 357.31 242.085 358.26Z" fill="#EC008C"/>
<path d="M249.738 335.312C249.993 335.48 249.993 335.48 249.738 335.312V335.312Z" fill="#EC008C"/>
<path d="M234.231 343.579C234.829 343.105 235.447 344.16 234.874 344.561C234.248 345.089 233.638 343.98 234.231 343.579Z" fill="#EC008C"/>
<path d="M256.786 350.43C257.928 349.71 256.958 351.785 256.786 350.43V350.43Z" fill="#EC008C"/>
<path d="M256.68 351.228C257.911 350.639 256.729 352.587 256.68 351.228V351.228Z" fill="#EC008C"/>
<path d="M334.944 397.955C336.065 397.271 337.49 397.819 338.247 398.785C339.859 400.774 340.244 403.472 340.146 405.956C339.986 408.174 339.43 410.626 337.657 412.128C336.577 413.081 334.879 412.733 334.027 411.653C332.091 409.332 331.809 406.058 332.173 403.169C332.497 401.221 333.168 399.047 334.944 397.955Z" fill="#EC008C"/>
<path d="M345.945 404.114C347.095 403.607 348.319 404.437 348.786 405.489C349.838 407.687 349.617 410.294 348.896 412.561C348.348 414.076 347.501 415.713 345.937 416.376C344.877 416.826 343.707 416.142 343.224 415.185C342.111 413.114 342.27 410.601 342.86 408.403C343.383 406.717 344.243 404.871 345.945 404.114Z" fill="#EC008C"/>
<path d="M325.936 406.095C326.934 405.231 328.338 405.993 328.846 407.024C330.086 409.283 330.102 412.189 328.993 414.51C328.535 415.512 327.344 416.511 326.218 415.877C324.708 414.923 324.299 412.971 324.196 411.309C324.151 409.471 324.462 407.356 325.936 406.095Z" fill="#EC008C"/>
<path d="M334.146 416.449C337.015 415.537 340.129 416.613 342.38 418.459C346.125 421.504 348.323 426.092 349.289 430.749C350.189 435.284 349.993 440.232 347.779 444.378C346.432 446.928 343.94 449.072 340.964 449.248C337.318 449.51 334.068 447.169 331.895 444.443C327.905 439.34 326.259 432.501 327.262 426.129C327.909 422.134 330.037 417.775 334.146 416.449Z" fill="#EC008C"/>
<path d="M320.902 345.327C324.921 342.949 328.944 340.493 332.493 337.416C335.824 341.549 337.609 346.628 339.209 351.617C340.052 354.065 340.093 356.741 339.606 359.271C339.229 360.989 337.695 362.078 336.172 362.737C336.242 359.766 335.779 356.545 333.729 354.245C333.234 353.754 332.546 353.062 331.789 353.426C330.107 354.048 328.85 355.399 327.504 356.532C321.455 361.652 315.144 366.871 311.285 373.939C309.66 377.016 308.01 380.16 307.339 383.61C307.057 384.346 306.762 385.075 306.488 385.816C305.371 388.357 305.055 391.14 304.757 393.874C304.429 397.508 304.233 401.151 304.016 404.793C301.859 404.617 299.702 404.413 297.545 404.204C297.582 403.025 297.619 401.847 297.68 400.672C298.63 387.878 302.42 374.982 310.249 364.661C312.918 361.206 316.233 358.239 318.381 354.4C319.932 351.617 320.297 348.4 320.902 345.327Z" fill="#27AAE1"/>
<path d="M338.423 346.624C340.735 348.904 343.314 350.88 346.142 352.481C351.663 355.906 357.577 359.213 361.44 364.603C363.36 367.3 365.091 370.177 366.208 373.3C366.687 374.765 367.076 376.828 365.582 377.847C363.945 378.788 361.964 378.563 360.159 378.551C356.57 378.33 352.956 378.969 349.621 380.295C344.828 382.124 340.875 385.521 337.281 389.094C332.329 389.724 328.093 392.822 324.97 396.575C320.055 402.289 317.342 409.668 316.728 417.137C316.02 417.423 315.316 417.71 314.612 418.001C315.516 411.432 316.318 404.851 316.977 398.253C317.501 393.715 317.923 389.045 319.687 384.792C323.251 380.082 327.369 375.678 332.386 372.494C335.161 370.681 338.444 369.723 341.01 367.587C342.823 366.093 343.641 363.699 343.498 361.395C343.252 356.09 340.686 351.306 338.423 346.624ZM349.166 366.674C349.211 368.139 349.154 369.813 347.881 370.795C345.066 373.087 341.267 373.349 338.083 374.917C330.111 378.604 324.393 385.787 320.313 393.358C321.799 393.661 323.477 394.017 324.86 393.174C328.13 391.394 330.275 388.234 333.053 385.844C337.936 381.674 343.699 378.281 350.079 377.123C352.166 376.718 354.409 376.955 356.374 376.038C357.258 375.662 358.002 374.639 357.618 373.66C356.996 372.228 355.817 371.135 354.753 370.034C353.214 368.438 351.069 367.71 349.166 366.674Z" fill="#27AAE1"/>
<path d="M304.622 350.917C307.597 350.357 310.511 349.522 313.376 348.548C314.219 351.797 312.541 355.075 310.339 357.38C308.489 359.471 306.083 360.932 303.946 362.684C304.065 364.28 304.486 365.88 304.175 367.489C303.279 373.464 299.952 378.658 297.938 384.269C296.252 389.47 294.91 394.787 293.952 400.173C293.747 401.36 293.567 402.551 293.383 403.742C289.204 403.189 284.805 403.512 280.855 401.834C280.72 401.425 280.593 401.016 280.471 400.611C280.196 399.162 279.91 397.721 279.697 396.268C278.428 386.098 279.542 375.768 281.883 365.835C282.91 360.965 284.772 356.324 285.762 351.445C286.053 351.421 286.63 351.363 286.917 351.339C289.249 351.617 291.586 351.83 293.94 351.879C293.543 353.279 293.129 354.674 292.704 356.07C294.975 356.365 297.247 356.86 299.551 356.729C302.366 356.365 304.278 353.692 304.601 351.007L304.622 350.917ZM287.547 370.534C286.086 375.232 285.275 380.123 284.682 385.005C284.428 387.477 284.023 389.962 284.162 392.458C285.046 393.043 286.303 392.855 287.342 393.011C288.869 393.322 289.835 391.861 290.428 390.69C291.771 387.911 292.298 384.837 292.949 381.846C293.6 378.817 295.266 375.96 295.024 372.785C294.987 371.786 294.357 370.685 293.277 370.591C291.427 370.398 289.556 370.247 287.694 370.317L287.547 370.534Z" fill="#27AAE1"/>
<path d="M269.343 353.659C271.32 352.432 273.456 351.408 275.776 351.065C273.157 353.136 270.865 355.636 269.482 358.714C269.445 357.093 269.339 355.473 269.347 353.856L269.343 353.659Z" fill="#27AAE1"/>
<path d="M265.872 357.048C265.668 360.58 264.423 363.981 264.305 367.53C265.287 368.193 266.576 368.152 267.706 368.401C267.693 372.756 268.303 377.09 268.291 381.449C268.34 384.195 268.18 386.941 268.074 389.687C267.288 389.38 266.511 389.082 265.729 388.783C266.11 390.518 266.687 392.2 267.378 393.837C267.738 394.914 267.223 396.051 267.137 397.144C265.283 394.296 263.846 391.21 262.504 388.099C261.382 384.907 260.76 381.576 259.786 378.342C259.299 373.034 260.494 367.652 262.487 362.745C263.367 360.715 264.432 358.738 265.872 357.048Z" fill="#27AAE1"/>
<path d="M271.983 374.033C271.688 368.749 272.29 363.068 275.416 358.636C275.04 371.025 274.602 383.601 277.434 395.769C277.717 396.985 278.044 398.196 278.306 399.424C278.33 399.645 278.384 400.091 278.408 400.316C276.673 399.092 274.88 397.864 273.554 396.182C272.801 394.046 271.749 391.897 272.073 389.565C272.478 384.395 272.384 379.198 271.983 374.033Z" fill="#27AAE1"/>
<path d="M238.292 365.393C240.502 366.748 242.466 368.463 244.435 370.137C244.59 370.783 244.803 371.426 245.212 371.966C248.838 376.975 253.205 381.445 258.112 385.21C259.483 386.299 260.887 387.379 262.504 388.099C263.846 391.21 265.283 394.296 267.137 397.144C266.605 400.459 265.688 403.717 264.346 406.799C263.486 408.788 261.98 410.368 260.654 412.05C261.734 412.868 262.807 413.699 263.834 414.587C262.745 415.107 261.141 416.445 260.179 415.05C256.201 410.797 252.219 406.476 249.182 401.478C242.401 390.706 238.991 378.04 238.292 365.393Z" fill="#0E4C8B"/>
<path d="M307.339 383.61C309.909 380.176 313.887 378.109 318.078 377.442C317.46 379.079 316.818 380.7 316.282 382.366L316.126 382.378C315.991 382.394 315.717 382.423 315.582 382.439C314.084 384.207 312.975 386.254 311.571 388.091C310.122 390.043 308.767 392.217 306.529 393.346C305.788 390.882 306.447 388.32 306.488 385.816C306.762 385.075 307.057 384.346 307.339 383.61Z" fill="#0E4C8B"/>
<path d="M309.75 402.166C311.502 397.463 312.279 392.446 314.289 387.833C314.129 389.949 313.638 392.024 313.388 394.132C313.118 395.9 313.196 397.709 312.807 399.465C312.701 399.019 312.59 398.581 312.476 398.147C311.952 399.506 311.453 400.873 310.994 402.26C310.683 402.236 310.061 402.191 309.75 402.166Z" fill="#0E4C8B"/>
<path d="M271.503 395.532C271.741 393.547 271.786 391.541 272.072 389.565C271.749 391.897 272.801 394.046 273.554 396.182C272.866 395.961 272.183 395.749 271.503 395.532Z" fill="#0E4C8B"/>
<path d="M277.434 395.769C278.187 395.933 278.94 396.096 279.697 396.268C279.91 397.721 280.197 399.162 280.471 400.611C280.467 400.856 280.459 401.351 280.454 401.597C279.468 401.167 278.641 400.471 278.306 399.424C278.044 398.196 277.716 396.985 277.434 395.769Z" fill="#0E4C8B"/>
<path d="M293.952 400.173C295.192 400.341 296.436 400.508 297.681 400.672C297.619 401.847 297.582 403.025 297.546 404.204C296.154 404.065 294.771 403.881 293.383 403.742C293.567 402.551 293.748 401.36 293.952 400.173Z" fill="#0E4C8B"/>
<path d="M304.016 404.793C305.579 405.076 307.167 405.121 308.755 405.1C309.181 405.219 309.606 405.346 310.044 405.456C310.756 405.469 311.469 405.432 312.185 405.395C311.575 409.606 311.252 413.867 310.425 418.046C303.144 419.715 295.622 420.767 288.148 420.022C285.922 419.74 283.663 419.511 281.535 418.754C287.907 419.233 294.345 417.325 299.649 413.822C300.926 412.954 302.325 412.017 302.886 410.503C303.578 408.677 303.729 406.709 304.016 404.793Z" fill="#0E4C8B"/>
<path d="M314.612 418.001C315.316 417.71 316.02 417.423 316.728 417.137C316.356 422.474 316.986 427.843 318.373 433.004C315.959 433.205 313.532 433.184 311.113 433.356C311.682 429.534 311.976 425.687 312.079 421.827C312.738 421.627 313.405 421.434 314.076 421.246C314.252 420.161 314.432 419.081 314.612 418.001Z" fill="#0E4C8B"/>
<path d="M315.582 382.439C315.717 382.423 315.991 382.394 316.126 382.378C315.528 384.199 314.964 386.037 314.288 387.833C312.279 392.446 311.501 397.463 309.749 402.166C309.389 403.132 309.046 404.106 308.755 405.1C307.167 405.121 305.579 405.076 304.016 404.793C304.233 401.151 304.429 397.508 304.756 393.874C305.055 391.14 305.37 388.357 306.488 385.816C306.447 388.32 305.788 390.882 306.529 393.346C308.767 392.217 310.122 390.043 311.571 388.091C312.974 386.254 314.084 384.207 315.582 382.439Z" fill="#146FA7"/>
<path d="M312.475 398.147C312.59 398.581 312.701 399.019 312.807 399.465C312.627 401.442 312.328 403.41 312.185 405.395C311.469 405.432 310.757 405.469 310.044 405.457C310.343 404.38 310.646 403.316 310.994 402.26C311.452 400.873 311.952 399.506 312.475 398.147Z" fill="#146FA7"/>
<path d="M308.755 405.1C309.045 404.106 309.389 403.132 309.749 402.166C310.06 402.191 310.683 402.236 310.994 402.26C310.646 403.316 310.343 404.38 310.044 405.456C309.606 405.346 309.181 405.219 308.755 405.1Z" fill="#073267"/>
<path d="M175.792 422.887C181.988 420.215 188.749 419.048 195.47 418.848C195.232 422.003 196.079 425.241 197.946 427.811C200.442 431.31 204.285 433.541 208.194 435.149C216.674 438.685 226.05 440.433 235.214 439.238C235.152 440.699 235.169 442.176 235.5 443.613C219.58 443.248 203.688 442.156 187.833 440.707C182.725 440.146 177.56 439.397 172.763 437.465C170.594 436.52 168.257 435.3 167.21 433.053C166.444 431.367 167.115 429.427 168.241 428.077C170.21 425.678 173.001 424.14 175.792 422.887Z" fill="#D1D3D4"/>
<path d="M405.629 419.396L405.666 419.126C414.862 419.724 424.132 420.35 433.087 422.662C437.253 423.8 441.506 425.253 444.829 428.118C446.11 429.219 447.37 430.782 446.998 432.595C446.445 435.002 444.33 436.594 442.41 437.944C436.725 441.619 430.247 443.821 423.829 445.855C412.542 449.224 400.947 451.745 389.189 452.682C381.761 453.001 374.529 455.129 367.751 458.093C362.447 460.352 357.356 463.102 351.966 465.156C347.935 466.691 343.609 467.727 339.274 467.297C333.639 466.9 328.331 464.866 322.941 463.356C317.71 461.862 312.201 461.334 306.795 461.964C301.147 462.488 295.777 464.465 290.183 465.296C276.808 467.465 263.175 467.788 249.669 466.916C239.405 466.139 229.05 464.764 219.338 461.199C216.531 460.098 213.69 458.903 211.304 457.028C210.261 456.198 209.143 454.786 209.86 453.402C210.973 451.548 213.175 450.803 215.078 450.038C221.9 447.697 229.091 446.76 236.171 445.553C238.824 451.184 244.832 454.041 250.402 456.018C258.804 459.046 267.726 460.749 276.673 460.65C282.828 460.564 289.053 459.619 294.75 457.213C299.727 455.121 304.29 451.704 307.044 446.993C308.722 444.218 309.467 441.034 310.233 437.92C313.466 437.813 316.699 437.637 319.932 437.494C321.549 441.529 323.661 445.372 326.284 448.843C329.239 452.67 332.648 456.361 337.048 458.526C340.564 460.29 344.656 460.675 348.491 459.93C353.709 458.919 358.473 456.427 363.114 453.93C369.953 450.173 376.718 446.191 384.04 443.42C389.786 441.407 395.381 438.435 399.429 433.786C402.965 429.804 405.077 424.672 405.629 419.396Z" fill="#D1D3D4"/>
</svg>
