<svg width="597" height="597" viewBox="0 0 597 597" fill="none" xmlns="http://www.w3.org/2000/svg">
<circle cx="298.5" cy="298.5" r="298.5" fill="#EEFFD8"/>
<path opacity="0.13" d="M278.971 165.185C281.473 165.185 286.488 165.176 288.999 165.176L288.935 166.105C285.632 166.059 282.338 165.995 279.044 166.114L278.971 165.185Z" fill="#212121"/>
<path opacity="0.89" d="M252.626 188.846C258.323 178.462 267.141 168.898 279.044 166.114C282.338 165.995 285.632 166.059 288.935 166.105C296.188 167.934 301.612 173.421 307.809 177.27C308.964 178.29 310.32 179.245 310.994 180.674C310.693 180.956 310.093 181.529 309.802 181.811C308.473 180.856 307.163 179.864 306.034 178.681C304.842 177.471 303.386 176.57 301.912 175.732C300.401 174.559 298.791 173.521 297.207 172.447C295.06 170.737 292.876 168.807 290.018 168.498C288.58 168.361 285.714 168.088 284.276 167.952C282.074 167.643 279.926 167.779 277.852 168.361C276.932 168.616 276.041 168.944 275.176 169.326C266.34 173.021 259.606 180.419 255.111 188.718C254.865 189.128 254.383 189.947 254.137 190.356C250.724 195.771 247.412 201.249 244.154 206.763C240.423 212.815 236.72 218.903 233.234 225.1C229.949 229.786 226.81 234.6 224.18 239.678C218.747 248.787 212.75 257.596 207.836 266.969C204.205 272.238 200.365 277.48 197.753 283.349C193.222 290.911 187.771 298.046 184.131 306.099C179.471 311.959 175.968 318.73 172.273 325.218C166.249 334.436 160.234 343.737 154.992 353.41C150.215 359.425 146.684 366.732 144.955 374.213C144.273 379.136 143.645 384.386 144.882 389.273C145.865 392.704 147.567 396.025 150.452 398.218C153.536 401.403 157.959 403.296 162.254 404.161C164.83 404.388 167.441 404.443 169.971 405.016C168.906 405.307 167.842 405.626 166.786 405.972C159.643 407.1 152.672 403.223 147.339 398.719C145.592 395.698 142.935 392.713 143.363 389.009C143.39 384.141 143.435 379.29 143.363 374.44C143.253 368.17 146.994 362.619 149.951 357.341C184.158 301.149 218.465 245.056 252.626 188.846Z" fill="#C6D9C7"/>
<path d="M277.852 168.361C279.926 167.779 282.074 167.643 284.276 167.952C285.741 168.616 290.737 170.627 287.498 171.974C286.133 175.004 288.781 176.797 289.509 179.272C287.898 181.156 285.505 182.894 287.17 186.061C286.542 199.447 288.99 212.788 287.179 226.11C289.39 243.4 285.122 260.69 287.161 277.971C287.325 292.267 286.861 306.581 287.434 320.877C286.688 323.252 283.612 324.79 285.286 328.048C284.185 336.493 284.322 345.029 284.413 353.537C284.203 356.495 287.498 358.433 286.205 361.7C286.424 372.574 286.023 383.467 286.56 394.333C286.76 395.425 287.589 396.253 288.044 397.245C287.152 398.482 285.514 398.946 284.303 399.847C283.976 399.884 283.321 399.975 282.993 400.02C281.737 398.701 280.327 397.563 279.025 396.307C282.22 391.885 280.245 385.842 280.845 380.81C281.364 375.796 279.417 370.845 280.236 365.877C281.346 358.142 280.782 350.298 280.026 342.563C281.865 312.951 280.117 283.203 280.955 253.546C283.111 249.279 283.885 243.527 281.291 239.305C280.245 226.765 280.936 214.125 280.845 201.549C284.049 194.042 282.311 185.579 282.21 177.589C282.192 175.205 282.201 172.511 284.149 170.837C282.119 169.827 280.154 168.616 277.852 168.361Z" fill="#88E650"/>
<path d="M284.276 167.952C285.714 168.088 288.581 168.361 290.018 168.498C290.892 171.474 293.294 173.721 293.859 176.815C292.867 180.446 291.574 184.059 291.775 187.89C291.647 225.801 291.747 263.72 291.729 301.64C292.075 318.957 290.1 336.184 290.801 353.51C289.918 366.805 292.885 380.082 290.346 393.277C289.782 395.416 291.82 396.926 292.512 398.773C291.565 399.11 290.637 399.447 289.7 399.784C287.898 399.847 286.105 399.838 284.304 399.847C285.514 398.946 287.152 398.482 288.044 397.245C287.589 396.253 286.761 395.425 286.56 394.333C286.023 383.467 286.424 372.575 286.205 361.7C287.498 358.433 284.203 356.495 284.413 353.537C284.322 345.029 284.185 336.493 285.286 328.048C283.612 324.79 286.688 323.253 287.434 320.877C286.861 306.581 287.325 292.267 287.161 277.971C285.123 260.69 289.39 243.4 287.179 226.11C288.99 212.788 286.542 199.447 287.17 186.061C285.505 182.894 287.898 181.156 289.509 179.272C288.781 176.797 286.133 175.004 287.498 171.974C290.737 170.627 285.741 168.616 284.276 167.952Z" fill="#8CE750"/>
<path d="M275.176 169.326C276.041 168.944 276.933 168.616 277.852 168.361C280.154 168.616 282.12 169.827 284.149 170.837C282.201 172.511 282.192 175.205 282.211 177.589C282.311 185.579 284.049 194.042 280.846 201.549C280.937 214.125 280.245 226.765 281.291 239.305C283.885 243.527 283.111 249.279 280.955 253.547C280.118 283.203 281.865 312.951 280.027 342.563C280.782 350.298 281.346 358.142 280.236 365.877C279.417 370.846 281.364 375.796 280.846 380.81C280.245 385.842 282.22 391.885 279.026 396.307C280.327 397.563 281.737 398.701 282.993 400.02C280.745 400.33 278.498 400.621 276.25 400.885L276.578 400.175C278.043 398.619 275.531 397.945 274.712 396.908C277.133 360.053 276.004 323.089 276.25 286.17C276.05 275.559 276.933 264.867 275.358 254.329C278.088 247.422 276.969 239.769 277.178 232.48C276.969 214.653 277.533 196.817 276.878 178.999C276.942 176.288 279.626 171.983 277.297 170.254C276.769 170.027 275.704 169.563 275.176 169.326Z" fill="#85E350"/>
<path d="M290.018 168.498C292.876 168.807 295.06 170.737 297.207 172.447C297.053 174.859 296.734 177.252 295.924 179.527C296.188 189.901 294.395 200.321 296.152 210.64C296.388 240.979 296.297 271.319 296.197 301.658C294.55 317.665 295.66 333.809 295.369 349.888C294.059 354.202 297.972 357.432 297.116 361.7C297.271 370.8 297.235 379.909 297.171 389.018C297.38 391.685 293.859 393.304 294.65 395.962C296.043 397.054 298.063 398.109 296.306 399.92C294.65 399.893 291.356 399.82 289.7 399.784C290.637 399.447 291.565 399.11 292.512 398.773C291.82 396.926 289.782 395.416 290.346 393.277C292.885 380.082 289.918 366.805 290.801 353.51C290.1 336.184 292.075 318.957 291.729 301.64C291.747 263.72 291.647 225.801 291.775 187.89C291.574 184.059 292.867 180.446 293.859 176.815C293.294 173.721 290.892 171.474 290.018 168.498Z" fill="#8FE850"/>
<path d="M255.111 188.718C259.606 180.419 266.34 173.021 275.176 169.326C275.704 169.563 276.769 170.027 277.297 170.254C274.776 171 270.017 174.959 273.52 177.097C273.32 178.781 271.582 180.064 272.091 181.848C273.393 189.437 270.808 197.063 272.055 204.643C273.638 219.676 270.808 234.737 272.546 249.779C269.789 267.743 273.42 285.824 271.327 303.824C269.225 315.436 272.974 327.002 271.272 338.604C269.725 347.75 273.748 357.123 270.654 366.095C269.798 367.533 270.854 369.153 270.59 370.7C269.916 373.439 268.697 376.042 269.016 378.99C269.352 383.74 267.523 389.264 270.572 393.441C269.279 394.797 266.531 395.488 267.214 397.863C270.317 398.692 273.475 399.31 276.578 400.175L276.25 400.885C275.959 401.103 275.386 401.531 275.094 401.749C273.402 401.713 271.718 401.622 270.044 401.458C268.615 401.285 265.758 400.939 264.329 400.775C265.922 398.064 265.849 394.888 266.094 391.848C262.127 383.658 265.676 374.031 265.275 365.349C264.156 360.162 267.569 355.912 267.296 350.807C268.324 339.005 267.177 327.056 265.53 315.39C266.377 312.405 267.441 309.393 267.05 306.217C264.875 291.994 268.533 277.671 266.404 263.42C267.523 258.934 264.902 252.136 269.707 249.433C270.399 244.965 269.234 240.561 269.034 236.12C270.763 218.593 269.525 200.93 269.88 183.34C272.446 179.391 268.197 177.598 265.539 177.998C263.328 180.064 261.29 182.339 259.752 184.96C258.314 186.334 256.831 187.681 255.111 188.718Z" fill="#7EE053"/>
<path d="M273.52 177.097C270.016 174.959 274.776 171 277.296 170.254C279.626 171.983 276.942 176.287 276.878 178.999C277.533 196.817 276.969 214.653 277.178 232.48C276.969 239.769 278.088 247.422 275.358 254.329C276.932 264.867 276.05 275.559 276.25 286.17C276.004 323.089 277.133 360.053 274.712 396.908C275.531 397.945 278.043 398.619 276.578 400.175C273.474 399.31 270.317 398.691 267.214 397.863C266.531 395.488 269.279 394.797 270.572 393.441C267.523 389.264 269.352 383.74 269.015 378.99C268.697 376.042 269.916 373.439 270.59 370.7C270.854 369.153 269.798 367.533 270.653 366.095C273.747 357.123 269.725 347.75 271.272 338.604C272.974 327.002 269.225 315.436 271.327 303.824C273.42 285.824 269.789 267.742 272.546 249.779C270.808 234.737 273.638 219.676 272.055 204.643C270.808 197.063 273.393 189.437 272.091 181.848C271.582 180.064 273.32 178.781 273.52 177.097Z" fill="#80E251"/>
<path d="M297.207 172.447C298.791 173.521 300.401 174.558 301.912 175.732C302.34 177.78 303.477 179.472 305.243 180.601C305.552 180.947 306.171 181.638 306.48 181.993C303.659 182.384 303.759 185.424 304.06 187.571C302.567 189.391 300.911 191.466 301.166 193.969C302.731 208.583 300.583 223.362 302.513 237.94C302.849 256.14 302.513 274.34 302.667 292.54C302.449 313.77 299.273 335.028 301.584 356.24C298.39 367.506 300.138 379.754 300.32 391.384C300.483 394.569 303.832 396.689 301.703 399.911C299.901 399.947 298.099 399.947 296.306 399.92C298.063 398.109 296.043 397.053 294.65 395.961C293.859 393.304 297.38 391.684 297.171 389.018C297.235 379.909 297.271 370.8 297.116 361.7C297.972 357.432 294.059 354.202 295.369 349.888C295.66 333.808 294.55 317.665 296.197 301.658C296.297 271.319 296.388 240.979 296.152 210.64C294.395 200.321 296.188 189.901 295.924 179.527C296.734 177.252 297.053 174.859 297.207 172.447Z" fill="#94E94F"/>
<path d="M301.912 175.732C303.386 176.57 304.842 177.471 306.034 178.681C305.834 179.163 305.443 180.119 305.243 180.601C303.477 179.473 302.34 177.78 301.912 175.732Z" fill="#83AD60"/>
<path d="M265.539 177.998C268.196 177.598 272.446 179.391 269.88 183.34C269.525 200.93 270.763 218.593 269.034 236.12C269.234 240.561 270.399 244.965 269.707 249.433C264.902 252.136 267.523 258.934 266.404 263.42C268.533 277.671 264.875 291.994 267.05 306.217C267.441 309.393 266.376 312.405 265.53 315.39C267.177 327.056 268.324 339.005 267.296 350.807C267.569 355.912 264.156 360.162 265.275 365.349C265.676 374.031 262.127 383.658 266.094 391.848C265.849 394.888 265.921 398.064 264.329 400.775C262.527 400.794 260.734 400.821 258.942 400.803C258.441 398.901 258.059 396.771 259.661 395.279C256.849 389.091 256.776 382.284 257.094 375.568C257.568 375.687 258.523 375.905 259.005 376.014C258.532 367.897 259.834 359.78 259.015 351.681C257.113 334.127 260.744 316.5 259.852 298.883C259.615 295.925 262.946 293.951 261.708 290.702C263.747 286.425 258.532 284.104 259.979 279.918C260.926 277.871 262.491 275.987 261.708 273.412C264.629 268.844 257.832 267.797 259.852 263.365C259.142 260.062 262.846 257.805 261.644 254.32C261.326 249.679 262.982 244.437 260.38 240.215C260.425 234.664 257.395 227.257 262.291 222.989C263.019 214.426 261.18 205.89 261.153 197.309C260.835 195.079 262.746 193.332 263.182 191.221C265.494 187.371 261.663 186.634 259.752 184.96C261.29 182.339 263.328 180.064 265.539 177.998Z" fill="#79DF50"/>
<path d="M305.243 180.601C305.443 180.119 305.834 179.163 306.034 178.681C307.163 179.864 308.473 180.856 309.802 181.811C317.591 188.946 323.998 197.354 330.268 205.808C364.62 249.724 398.945 293.668 433.161 337.694C435.136 339.915 436.974 342.271 438.421 344.874C436.301 345.411 435.009 346.94 435.154 349.169C427.337 337.23 418.174 326.246 409.383 315.026C404.687 307.946 399.145 301.503 393.922 294.833C393.121 293.614 392.175 292.504 391.147 291.484C384.731 281.984 376.987 273.457 370.271 264.166C369.379 262.41 368.051 260.945 366.64 259.598C363.501 254.939 359.988 250.525 356.294 246.294C356.248 243.982 354.292 242.581 352.408 241.689C350.624 239.569 348.877 237.43 347.194 235.246C346.666 232.343 343.936 230.542 342.471 228.157C339.595 224.69 337.329 220.623 333.716 217.856C331.332 213.88 328.575 210.158 325.663 206.563C324.862 205.344 323.916 204.224 322.878 203.205C319.757 198.792 316.572 194.396 312.95 190.374C311.057 187.389 308.837 184.623 306.48 181.993C306.171 181.638 305.552 180.947 305.243 180.601Z" fill="#3D452E"/>
<path opacity="0.9" d="M310.994 180.674C316.272 183.695 319.766 188.809 323.452 193.496C353.409 232.362 383.885 270.782 413.915 309.584C423.734 322.506 434.381 334.837 443.381 348.341C448.049 354.729 451.543 362.273 452.326 370.208C454.674 382.011 448.249 394.833 437.302 399.847C433.07 401.649 428.602 403.778 423.916 403.469C423.625 403.251 423.06 402.832 422.769 402.623L422.724 401.813C435.109 401.549 447.703 392.54 450.297 380.127C450.97 376.396 451.534 372.411 450.415 368.716C448.313 360.026 443.954 351.881 438.421 344.874C436.974 342.272 435.136 339.915 433.161 337.694C398.945 293.668 364.62 249.725 330.268 205.808C323.998 197.354 317.591 188.946 309.802 181.811C310.093 181.529 310.694 180.956 310.994 180.674Z" fill="#C9C9C9"/>
<path d="M304.06 187.571C303.759 185.424 303.659 182.384 306.48 181.993C308.837 184.623 311.057 187.389 312.95 190.374C311.904 190.22 310.857 190.074 309.82 189.928C309.965 191.657 310.457 193.341 310.693 195.061C309.201 197.281 306.535 199.092 308.127 202.441C308.191 264.585 307.854 326.747 308.291 388.882C309.938 392.422 310.43 397.181 306.962 399.774C305.206 399.865 303.459 399.911 301.703 399.911C303.832 396.689 300.483 394.569 300.319 391.384C300.137 379.754 298.39 367.506 301.584 356.24C299.273 335.028 302.449 313.77 302.667 292.54C302.513 274.34 302.849 256.14 302.513 237.94C300.583 223.362 302.731 208.583 301.166 193.969C300.911 191.466 302.567 189.391 304.06 187.571Z" fill="#97EB50"/>
<path d="M255.111 188.718C256.831 187.681 258.314 186.334 259.752 184.96C261.663 186.634 265.494 187.371 263.182 191.221C262.746 193.332 260.835 195.079 261.153 197.309C261.18 205.89 263.019 214.426 262.291 222.989C257.395 227.257 260.425 234.664 260.38 240.215C262.982 244.437 261.326 249.679 261.644 254.32C262.846 257.805 259.142 260.062 259.852 263.365C257.832 267.797 264.629 268.844 261.708 273.412C262.491 275.987 260.926 277.871 259.979 279.918C258.532 284.104 263.747 286.425 261.708 290.702C262.946 293.951 259.615 295.925 259.852 298.883C260.744 316.5 257.113 334.127 259.015 351.681C259.834 359.78 258.532 367.897 259.005 376.014C258.523 375.905 257.568 375.687 257.094 375.568C256.776 382.284 256.849 389.091 259.661 395.279C258.059 396.771 258.441 398.901 258.942 400.803C257.377 400.821 255.82 400.83 254.264 400.857C253.518 390.856 253.063 380.783 254.255 370.791C254.628 338.641 254.301 306.481 254.392 274.322C254.383 270.154 257.895 266.823 257.067 262.492C255.757 250.425 256.166 238.24 256.348 226.119C258.277 214.68 255.848 202.941 258.004 191.566C258.159 189.401 255.42 190.238 254.137 190.356C254.383 189.947 254.865 189.128 255.111 188.718Z" fill="#75DE51"/>
<path d="M254.137 190.356C255.42 190.238 258.159 189.401 258.004 191.566C255.848 202.941 258.278 214.68 256.348 226.119C256.166 238.24 255.757 250.425 257.067 262.492C257.895 266.823 254.383 270.154 254.392 274.322C254.301 306.481 254.628 338.641 254.255 370.791C253.063 380.783 253.518 390.856 254.264 400.857C251.534 401.067 248.832 401.503 246.102 401.649C246.52 401.358 247.367 400.785 247.785 400.493C246.639 376.66 247.276 352.782 247.139 328.922C245.829 324.608 249.742 321.378 248.895 317.11C248.859 299.793 248.823 282.457 250.643 265.222C252.599 248.314 251.298 231.252 251.716 214.28C250.643 210.968 253.473 206.063 250.588 203.396C248.304 203.415 246.684 205.326 245.037 206.654L244.154 206.763C247.412 201.249 250.724 195.771 254.137 190.356Z" fill="#71DC52"/>
<path d="M309.82 189.928C310.857 190.074 311.904 190.22 312.95 190.374C316.572 194.396 319.757 198.792 322.878 203.205C321.604 202.532 320.576 201.294 319.166 200.948C317.801 201.485 316.618 202.368 315.662 203.469C318.165 212.587 317.691 222.625 316.563 231.852C313.469 238.495 318.074 246.967 313.06 252.919C312.868 257.969 311.403 263.711 313.869 268.425C315.708 278.189 315.416 288.136 315.38 298.018C313.505 302.268 318.438 304.743 317.145 308.92C317.482 335.319 316.518 361.764 318.146 388.108C317.974 391.029 313.442 392.731 314.852 395.971C315.526 397.372 315.325 399.465 316.954 400.193L317.291 400.839C315.817 400.821 314.343 400.73 312.878 400.602C311.403 400.393 308.446 399.984 306.963 399.774C310.43 397.181 309.938 392.422 308.291 388.882C307.854 326.747 308.191 264.585 308.127 202.441C306.535 199.092 309.201 197.281 310.694 195.061C310.457 193.341 309.966 191.657 309.82 189.928Z" fill="#9CEC4F"/>
<path d="M319.166 200.948C320.576 201.294 321.604 202.532 322.878 203.205C323.916 204.224 324.862 205.344 325.663 206.563C322.159 206.445 325.836 210.249 323.579 211.568C321.304 213.252 322.378 216.054 321.513 218.357C320.112 227.229 321.022 236.275 320.885 245.22C318.365 250.198 326.036 251.162 323.534 256.14C323.524 286.47 323.761 316.81 323.406 347.131C321.877 361.846 323.097 376.706 322.442 391.448C323.97 393.377 321.968 394.697 320.804 396.143C322.178 396.544 325.272 395.47 324.407 397.9C322.096 397.599 320.212 398.246 318.756 399.838C318.31 399.92 317.409 400.102 316.954 400.193C315.325 399.465 315.526 397.372 314.852 395.971C313.442 392.731 317.973 391.029 318.146 388.108C316.517 361.764 317.482 335.319 317.145 308.92C318.438 304.743 313.505 302.268 315.38 298.018C315.416 288.136 315.708 278.189 313.869 268.425C311.403 263.711 312.868 257.969 313.059 252.919C318.074 246.967 313.469 238.495 316.563 231.852C317.691 222.625 318.165 212.587 315.662 203.469C316.618 202.368 317.801 201.485 319.166 200.948Z" fill="#A1EE4F"/>
<path d="M245.037 206.654C246.684 205.326 248.304 203.415 250.588 203.396C253.473 206.063 250.643 210.968 251.716 214.28C251.298 231.251 252.599 248.314 250.643 265.222C248.823 282.457 248.859 299.793 248.895 317.11C249.742 321.378 245.829 324.608 247.139 328.922C247.276 352.782 246.639 376.66 247.785 400.493C247.367 400.784 246.52 401.358 246.102 401.649C245.665 401.667 244.8 401.704 244.364 401.722C243.563 399.856 242.453 397.809 243.763 395.916C244.919 380.637 244.291 365.203 244.355 349.879C241.015 341.625 243.081 332.207 242.58 323.489C242.38 321.86 244.218 321.378 245.119 320.413C246.184 306.345 243.108 292.322 244.682 278.253C246.429 263.365 244.227 248.278 245.82 233.381C245.447 230.969 244.2 228.494 245.228 226.064C247.03 221.733 245.137 217.019 245.447 212.56C246.02 210.576 248.986 206.527 245.037 206.654Z" fill="#6CDB51"/>
<path d="M233.234 225.1C236.72 218.903 240.423 212.815 244.154 206.763L245.037 206.654C248.986 206.527 246.02 210.576 245.446 212.56C245.137 217.019 247.03 221.733 245.228 226.064C244.2 228.494 245.446 230.969 245.82 233.381C244.227 248.278 246.429 263.365 244.682 278.253C243.108 292.322 246.184 306.345 245.119 320.413C244.218 321.378 242.38 321.86 242.58 323.489C243.08 332.207 241.015 341.625 244.354 349.879C244.291 365.203 244.919 380.637 243.763 395.916C242.453 397.809 243.563 399.856 244.364 401.722C242.753 401.758 241.133 401.886 239.604 402.432C237.875 402.586 236.137 402.65 234.408 402.677C233.125 402.614 231.842 402.55 230.559 402.495C232.688 402.24 234.809 401.922 236.911 401.531C238.612 398.883 237.429 395.661 237.466 392.722C238.722 375.732 237.63 358.679 238.103 341.662C239.759 327.475 236.51 313.106 238.813 298.91C239.204 279.19 238.731 259.471 238.995 239.76C237.366 235.474 242.744 233.162 241.606 229.104C240.942 228.967 239.613 228.703 238.949 228.567C239.295 224.536 242.507 221.178 241.661 216.864C239.031 219.758 236.783 223.234 233.234 225.1Z" fill="#69D952"/>
<path d="M323.579 211.568C325.836 210.249 322.16 206.445 325.663 206.563C328.575 210.158 331.332 213.88 333.717 217.856C332.133 217.529 330.359 213.516 329.64 214.981C329.267 216.227 329.048 217.511 328.748 218.775C327.292 218.648 325.891 218.239 324.462 218.002C323.652 225.682 327.893 232.89 327.064 240.543C324.944 244.101 324.225 249.197 327.61 252.154C329.012 257.723 326.746 263.265 327.201 268.871C327.674 290.702 326.255 312.615 327.938 334.4C326.773 348.023 327.328 361.691 327.183 375.35C327.274 381.32 326.737 387.435 328.429 393.241C328.803 394.342 327.774 395.215 327.456 396.189C328.53 397.217 329.749 398.064 330.959 398.919C326.901 399.301 322.851 400.038 318.756 399.838C320.212 398.246 322.096 397.6 324.407 397.9C325.272 395.47 322.178 396.544 320.804 396.144C321.968 394.697 323.97 393.377 322.442 391.448C323.097 376.706 321.877 361.846 323.406 347.131C323.761 316.81 323.525 286.47 323.534 256.14C326.036 251.162 318.365 250.198 320.886 245.22C321.022 236.275 320.112 227.229 321.513 218.357C322.378 216.055 321.304 213.252 323.579 211.568Z" fill="#A5EF50"/>
<path d="M329.64 214.981C330.359 213.516 332.133 217.529 333.717 217.856C337.329 220.623 339.595 224.69 342.471 228.158C343.936 230.542 346.666 232.344 347.194 235.246L346.42 234.755C344.127 232.134 340.441 230.514 339.468 226.965C338.012 229.568 338.412 232.708 339.277 235.438C338.976 239.724 340.796 244.328 338.64 248.314C338.103 275.851 337.639 303.788 338.776 331.406C336.556 336.293 342.07 339.56 340.833 344.41C340.341 348.669 342.407 353.829 339.44 357.505C337.065 360.453 338.64 364.667 338.103 368.061C334.581 373.676 344.036 372.575 340.76 378.098C340.405 384.113 342.471 390.165 340.332 395.98C342.434 396.781 343.008 397.818 340.842 399.074C338.849 399.984 336.729 399.101 334.663 399.001C335.409 397.336 333.762 396.153 333.616 394.606C336.437 392.085 334.827 387.671 335.427 384.459C335.355 351.481 335.446 318.493 335.382 285.506C334.909 285.606 333.971 285.806 333.498 285.915C334.554 270.545 332.97 255.139 333.571 239.742C331.933 236.175 335.163 234.027 335.555 230.942C334.199 231.06 331.478 231.315 330.122 231.434C328.848 230.059 328.166 228.239 327.965 226.392C330.896 227.739 334.399 226.201 334.162 222.698C331.86 220.623 330.277 218.029 329.64 214.981Z" fill="#ADF14E"/>
<path d="M328.748 218.775C329.048 217.511 329.267 216.227 329.64 214.981C330.277 218.029 331.86 220.623 334.162 222.698C334.399 226.201 330.895 227.739 327.965 226.392C328.165 228.239 328.848 230.059 330.122 231.434C331.478 231.315 334.199 231.06 335.555 230.942C335.163 234.027 331.933 236.175 333.571 239.742C332.97 255.139 334.554 270.545 333.498 285.915C333.971 285.806 334.909 285.606 335.382 285.506C335.445 318.493 335.354 351.481 335.427 384.459C334.827 387.671 336.437 392.085 333.616 394.606C333.762 396.153 335.409 397.336 334.663 399.001C333.425 398.974 332.197 398.946 330.959 398.919C329.749 398.064 328.529 397.217 327.456 396.189C327.774 395.215 328.802 394.342 328.429 393.241C326.737 387.435 327.274 381.32 327.183 375.35C327.328 361.691 326.773 348.023 327.938 334.4C326.254 312.615 327.674 290.702 327.201 268.871C326.746 263.265 329.012 257.723 327.61 252.154C324.225 249.197 324.944 244.101 327.064 240.543C327.892 232.89 323.652 225.682 324.462 218.002C325.89 218.239 327.292 218.648 328.748 218.775Z" fill="#A9F24E"/>
<path d="M233.234 225.1C236.783 223.234 239.031 219.758 241.661 216.864C242.507 221.178 239.295 224.536 238.949 228.567C239.613 228.703 240.942 228.967 241.606 229.104C242.744 233.162 237.366 235.474 238.995 239.76C238.731 259.471 239.204 279.19 238.813 298.91C236.51 313.106 239.759 327.475 238.103 341.662C237.63 358.679 238.722 375.732 237.466 392.722C237.429 395.661 238.612 398.883 236.911 401.531C234.809 401.922 232.688 402.24 230.559 402.495C227.82 402.523 225.099 402.586 222.369 402.532C223.37 402.077 224.38 401.658 225.381 401.212C230.359 400.484 229.358 394.587 229.631 390.92C227.601 380.601 230.996 370.181 229.03 359.871C229.349 355.985 227.428 351.098 230.677 348.023C233.935 339.651 229.913 330.669 231.169 322.015C231.787 316.145 231.305 310.212 232.179 304.379C229.349 296.307 230.886 287.38 231.878 279.081C234.199 276.023 233.344 271.765 233.416 268.225C229.285 268.68 231.314 264.33 231.323 261.818C235.655 253.801 232.67 243.964 233.444 235.255C233.089 232.252 228.721 233.035 228.803 235.947C227.374 237.321 225.881 238.65 224.18 239.678C226.81 234.6 229.949 229.786 233.234 225.1Z" fill="#64D752"/>
<path d="M339.277 235.438C338.412 232.708 338.012 229.568 339.468 226.965C340.441 230.514 344.127 232.134 346.42 234.755C343.49 237.867 349.287 240.852 348.895 244.11C347.658 246.512 345.301 243.518 343.526 243.309C343.39 246.585 348.422 247.386 348.031 250.653C347.121 259.088 347.021 267.588 346.456 276.042C347.376 278.135 348.895 279.891 348.085 282.53C348.276 319.221 347.994 355.912 348.204 392.595C348.404 394.979 351.625 395.534 351.88 397.891C350.415 398.209 347.485 398.837 346.02 399.156C344.291 399.046 342.571 399.01 340.842 399.074C343.008 397.818 342.434 396.781 340.332 395.98C342.471 390.165 340.405 384.113 340.76 378.098C344.036 372.575 334.581 373.676 338.103 368.061C338.64 364.667 337.065 360.453 339.44 357.505C342.407 353.829 340.341 348.669 340.833 344.41C342.07 339.56 336.556 336.293 338.776 331.406C337.639 303.788 338.103 275.851 338.64 248.314C340.796 244.328 338.976 239.724 339.277 235.438Z" fill="#B2F44E"/>
<path d="M228.803 235.947C228.721 233.035 233.089 232.253 233.444 235.256C232.67 243.964 235.655 253.801 231.323 261.818C231.314 264.33 229.285 268.68 233.416 268.225C233.344 271.765 234.199 276.024 231.878 279.081C230.887 287.38 229.349 296.307 232.179 304.379C231.305 310.212 231.787 316.145 231.169 322.015C229.913 330.669 233.935 339.651 230.677 348.023C227.429 351.099 229.349 355.985 229.03 359.871C230.996 370.181 227.601 380.601 229.631 390.92C229.358 394.587 230.359 400.484 225.381 401.212C223.925 399.765 222.615 398.127 221.696 396.289C222.806 393.004 225.254 390.065 223.688 386.288C221.887 355.931 224.79 325.591 226.227 295.279C226.637 286.316 224.125 277.125 227.429 268.416C228.211 262.592 227.72 256.668 227.219 250.844C227.865 249.852 229.003 248.942 228.53 247.622C227.256 243.673 229.085 239.878 228.803 235.947Z" fill="#5ED651"/>
<path d="M348.895 244.11C349.287 240.852 343.49 237.867 346.42 234.755L347.194 235.246C348.877 237.43 350.624 239.569 352.408 241.689C353.218 243.591 354.701 245.038 356.294 246.294C359.988 250.525 363.501 254.939 366.64 259.598C362.563 259.68 363.155 254.602 359.888 253.547C357.54 253.219 358.25 249.06 355.575 249.816C354.346 251.572 353.245 254.548 355.229 256.186C353.454 258.36 354.31 261.245 352.881 263.566C351.898 265.477 353.645 266.632 355.065 267.47C353.764 290.957 355.001 314.517 354.383 338.031C353.955 344.456 352.08 351.444 354.956 357.532C355.602 369.38 355.993 381.411 354.856 393.241C356.648 394.733 357.376 396.635 356.476 398.874C358.869 398.91 361.535 398.819 363.847 399.711C361.945 399.811 360.043 399.902 358.141 399.956C354.155 399.447 349.787 400.903 346.02 399.156C347.485 398.837 350.415 398.209 351.88 397.891C351.625 395.534 348.404 394.979 348.204 392.595C347.994 355.912 348.276 319.221 348.085 282.53C348.895 279.891 347.376 278.135 346.456 276.042C347.021 267.588 347.121 259.088 348.031 250.653C348.422 247.386 343.39 246.585 343.526 243.309C345.301 243.518 347.658 246.512 348.895 244.11Z" fill="#B7F54E"/>
<path d="M224.18 239.678C225.881 238.65 227.374 237.321 228.803 235.947C229.085 239.878 227.256 243.673 228.53 247.622C229.003 248.942 227.865 249.852 227.219 250.844C227.72 256.668 228.211 262.592 227.428 268.416C224.125 277.125 226.637 286.316 226.227 295.279C224.789 325.591 221.887 355.931 223.688 386.288C225.254 390.065 222.806 393.004 221.695 396.289C222.615 398.127 223.925 399.765 225.381 401.212C224.38 401.658 223.37 402.077 222.369 402.532C219.43 402.586 216.499 402.641 213.569 402.741L213.424 401.831C215.653 401.84 217.983 401.403 219.63 399.774C219.521 398.4 219.12 397.044 219.266 395.67C220.622 381.074 219.229 366.396 220.03 351.781C221.068 346.021 220.831 340.169 220.057 334.391C221.013 321.414 220.795 308.356 221.377 295.379C219.329 282.539 222.696 269.69 221.213 256.841C221.714 253.81 224.516 251.372 223.461 247.932C222.351 247.886 221.24 247.95 220.139 248.114C219.175 252.409 216.399 255.867 214.161 259.562C212.413 262.31 210.32 264.84 207.836 266.969C212.75 257.596 218.747 248.787 224.18 239.678Z" fill="#5BD454"/>
<path d="M352.408 241.689C354.292 242.581 356.248 243.982 356.294 246.294C354.701 245.038 353.218 243.591 352.408 241.689Z" fill="#85A848"/>
<path d="M220.139 248.114C221.241 247.95 222.351 247.886 223.461 247.932C224.517 251.372 221.714 253.81 221.213 256.841C222.697 269.69 219.33 282.539 221.377 295.379C220.795 308.356 221.013 321.414 220.058 334.391C220.831 340.169 221.068 346.021 220.03 351.781C219.229 366.396 220.622 381.074 219.266 395.67C219.12 397.044 219.521 398.4 219.63 399.774C217.983 401.403 215.653 401.84 213.424 401.831C212.186 401.776 210.948 401.731 209.711 401.695C213.278 400.512 211.403 397.072 212.286 394.351C212.495 392.267 210.776 390.565 210.184 388.645C209.447 379.672 209.893 370.663 209.793 361.673C209.31 357.896 214.088 355.785 212.495 351.69C212.477 328.612 212.323 305.535 214.197 282.521C214.98 274.731 213.587 266.086 216.964 258.779C216.017 259.016 215.089 259.27 214.161 259.562C216.399 255.867 219.175 252.409 220.139 248.114Z" fill="#55D353"/>
<path d="M355.575 249.816C358.25 249.06 357.54 253.219 359.888 253.547C363.155 254.602 362.563 259.68 366.64 259.598C368.051 260.945 369.379 262.41 370.271 264.166C368.042 263.029 366.003 261.545 363.728 260.499C364.793 262.874 366.422 265.677 364.11 267.852C365.248 280.91 363.519 294.096 365.33 307.1C366.449 315.927 363.592 324.745 365.33 333.508C365.421 339.614 364.192 345.62 363.683 351.681C359.615 358.351 371.19 355.03 367.232 361.709C368.133 373.812 366.122 385.824 366.431 397.891C368.779 397.536 370.954 398.728 372.938 399.756C369.889 399.774 366.877 399.993 363.847 399.711C361.535 398.819 358.869 398.91 356.476 398.874C357.376 396.635 356.648 394.733 354.856 393.241C355.993 381.411 355.602 369.38 354.956 357.532C352.08 351.444 353.955 344.456 354.383 338.031C355.001 314.517 353.764 290.957 355.065 267.47C353.645 266.632 351.898 265.477 352.881 263.566C354.31 261.245 353.454 258.36 355.229 256.186C353.245 254.548 354.346 251.572 355.575 249.816Z" fill="#BDF84D"/>
<path d="M214.161 259.562C215.089 259.27 216.017 259.016 216.964 258.779C213.587 266.086 214.98 274.731 214.197 282.521C212.323 305.535 212.477 328.612 212.495 351.69C214.088 355.785 209.31 357.896 209.793 361.673C209.893 370.664 209.447 379.673 210.184 388.645C210.776 390.565 212.495 392.267 212.286 394.351C211.403 397.072 213.278 400.512 209.711 401.695C207.281 401.713 204.851 401.713 202.431 401.704C203.741 399.101 205.525 394.751 201.885 393.286C203.05 382.184 202.294 371.009 202.586 359.88C207.099 343.091 202.258 325.136 205.234 308.01C206.48 301.13 205.707 294.105 206.408 287.207C208.146 283.222 209.21 278.644 207.845 274.386C207.299 274.413 206.189 274.486 205.634 274.522C204.424 278.408 200.684 280.765 197.753 283.349C200.365 277.48 204.205 272.238 207.836 266.969C210.321 264.84 212.414 262.31 214.161 259.562Z" fill="#50D053"/>
<path d="M363.728 260.499C366.003 261.545 368.042 263.029 370.271 264.166C376.987 273.457 384.731 281.984 391.147 291.484C385.696 286.27 379.562 281.292 376.15 274.404C375.158 274.295 374.33 274.604 373.666 275.35C375.031 277.507 376.414 279.682 376.932 282.23C373.42 282.985 379.835 285.224 377.06 286.834C373.902 289.382 376.468 294.224 375.358 297.563C374.43 297.581 373.493 297.581 372.692 298.109C372.947 300.948 375.231 302.96 376.059 305.599C377.251 321.751 374.921 337.94 376.905 354.065C377.424 357.641 376.177 361.209 376.705 364.794C378.243 375.477 375.531 386.625 379.28 396.981C382.574 398 386.178 397.563 389.399 398.855L389.09 399.811C386.324 399.856 383.603 399.929 380.864 400.011C378.197 399.911 375.577 399.92 372.938 399.756C370.954 398.728 368.779 397.536 366.431 397.891C366.122 385.824 368.133 373.812 367.232 361.709C371.19 355.03 359.615 358.351 363.683 351.681C364.192 345.62 365.421 339.614 365.33 333.508C363.592 324.745 366.449 315.927 365.33 307.1C363.519 294.096 365.248 280.91 364.111 267.852C366.422 265.677 364.793 262.874 363.728 260.499Z" fill="#C2F94E"/>
<path d="M205.634 274.522C206.189 274.486 207.299 274.413 207.845 274.385C209.21 278.644 208.146 283.222 206.408 287.207C205.707 294.105 206.48 301.13 205.234 308.01C202.258 325.136 207.099 343.09 202.586 359.88C202.294 371.009 203.05 382.184 201.885 393.286C205.525 394.751 203.741 399.101 202.431 401.704C198.764 401.704 195.105 401.685 191.447 401.649C192.712 399.82 193.959 397.982 195.196 396.143C197.335 391.885 191.948 389.564 193.604 385.351C195.151 372.838 193.331 360.153 195.77 347.704C195.788 335.255 197.79 322.816 196.598 310.385C194.314 306.891 198.09 304.907 198.072 301.822C194.878 302.677 190.401 299.219 187.989 302.686C186.77 303.888 185.65 305.234 184.131 306.099C187.771 298.045 193.222 290.911 197.753 283.349C200.684 280.765 204.424 278.408 205.634 274.522Z" fill="#48CD55"/>
<path d="M373.665 275.35C374.33 274.604 375.158 274.294 376.15 274.404C379.562 281.292 385.696 286.27 391.147 291.484C392.175 292.504 393.121 293.614 393.922 294.833C391.219 294.487 391.046 298.546 393.067 299.456C395.706 300.666 394.705 304.47 394.14 306.781C391.784 312.251 393.74 318.548 391.547 324.099C390.864 329.158 388.953 336.093 394.222 339.323C396.061 355.521 395.342 371.828 395.442 388.108C395.414 390.247 396.179 392.276 396.415 394.378C394.814 396.162 392.703 397.436 390.801 398.883C390.446 398.873 389.754 398.864 389.399 398.855C386.178 397.563 382.574 398 379.28 396.981C375.531 386.625 378.243 375.477 376.705 364.794C376.177 361.209 377.424 357.641 376.905 354.065C374.921 337.94 377.251 321.751 376.059 305.598C375.231 302.959 372.947 300.948 372.692 298.109C373.493 297.581 374.43 297.581 375.358 297.563C376.468 294.223 373.902 289.382 377.06 286.834C379.835 285.224 373.42 282.985 376.932 282.23C376.414 279.682 375.03 277.507 373.665 275.35Z" fill="#CBFE4C"/>
<path d="M393.067 299.456C391.046 298.546 391.219 294.487 393.922 294.833C399.145 301.504 404.687 307.946 409.383 315.026C408.391 314.762 407.399 314.526 406.407 314.325C408.955 317.174 409.392 320.814 408.519 324.481C410.02 324.354 411.485 324.035 412.959 323.753C412.513 325.455 411.076 327.211 409.146 326.61C410.575 330.933 407.245 336.184 411.512 339.332C411.622 347.968 412.532 356.586 412.695 365.204C410.657 366.641 406.453 366.15 409.101 370.836C408.7 373.02 411.33 373.43 412.513 374.722C412.641 378.89 413.132 383.04 413.578 387.18C416.363 391.994 409.137 392.84 410.43 396.99C409.065 397.727 407.609 398.282 406.189 398.91C401.057 399.037 395.924 399.01 390.801 398.883C392.703 397.436 394.814 396.162 396.415 394.378C396.179 392.276 395.415 390.247 395.442 388.108C395.342 371.828 396.061 355.521 394.222 339.323C388.954 336.093 390.865 329.158 391.547 324.099C393.74 318.548 391.784 312.251 394.14 306.782C394.705 304.47 395.706 300.666 393.067 299.456Z" fill="#D6FD4D"/>
<path d="M187.989 302.686C190.401 299.219 194.878 302.677 198.072 301.822C198.09 304.907 194.314 306.891 196.598 310.385C197.79 322.816 195.788 335.255 195.77 347.704C193.331 360.153 195.151 372.838 193.604 385.351C191.948 389.564 197.335 391.885 195.196 396.143C193.959 397.982 192.712 399.82 191.447 401.649C188.116 402.25 184.722 402.741 181.328 402.413C183.166 400.866 186.861 400.439 186.597 397.427C183.912 388.09 186.569 378.453 186.16 368.98C186.087 352.7 188.617 336.293 186.378 320.077C189.727 318.648 190.528 315.417 190.546 312.005C189.363 311.568 188.153 311.213 187.052 310.594C186.451 307.837 191.675 304.334 187.989 302.686Z" fill="#41CA53"/>
<path d="M184.131 306.099C185.65 305.235 186.77 303.888 187.989 302.687C191.675 304.334 186.451 307.837 187.052 310.594C188.153 311.213 189.363 311.568 190.546 312.005C190.528 315.417 189.727 318.648 186.378 320.077C188.617 336.293 186.087 352.7 186.16 368.98C186.57 378.453 183.912 388.09 186.597 397.427C186.861 400.439 183.166 400.866 181.328 402.413C180.445 402.723 179.563 403.06 178.68 403.414C177.169 403.496 175.659 403.542 174.157 403.551L173.247 403.496C173.948 401.285 175.003 399.21 175.868 397.072C175.559 384.668 176.35 372.283 176.168 359.88C175.941 357.614 179.098 356.777 178.607 354.475C179.936 346.448 178.725 338.204 179.499 330.114C179.444 328.412 178.662 326.874 178.179 325.273C178.935 322.807 180.727 320.686 180.818 318.02C176.605 318.757 175.377 323.025 172.273 325.218C175.968 318.73 179.472 311.959 184.131 306.099Z" fill="#3BC855"/>
<path d="M406.407 314.325C407.399 314.526 408.391 314.762 409.383 315.026C418.174 326.246 427.337 337.23 435.154 349.169C436.465 351.79 437.811 354.411 439.186 357.014C439.113 359.516 439.586 361.964 440.159 364.394C439.968 368.298 440.369 372.265 439.895 376.169C439.013 379.682 437.347 382.939 436.51 386.461C434.99 388.854 433.134 390.975 431.023 392.868C429.303 392.64 427.629 393.45 426.427 394.633C420.922 394.815 416.345 398.864 410.721 398.773C409.21 398.864 407.7 398.892 406.189 398.91C407.609 398.282 409.065 397.727 410.43 396.99C409.137 392.84 416.363 391.994 413.578 387.18C413.132 383.04 412.641 378.89 412.513 374.722C411.33 373.43 408.701 373.02 409.101 370.836C406.453 366.15 410.657 366.641 412.695 365.204C412.532 356.586 411.622 347.968 411.512 339.332C407.245 336.184 410.575 330.933 409.146 326.61C411.076 327.211 412.513 325.455 412.959 323.753C411.485 324.035 410.02 324.354 408.519 324.481C409.392 320.814 408.955 317.174 406.407 314.325Z" fill="#E1FB4F"/>
<path d="M172.273 325.218C175.377 323.025 176.605 318.757 180.818 318.02C180.727 320.686 178.935 322.807 178.179 325.273C178.662 326.874 179.444 328.412 179.499 330.114C178.725 338.204 179.936 346.448 178.607 354.475C179.098 356.777 175.941 357.614 176.168 359.88C176.35 372.283 175.559 384.668 175.868 397.072C175.003 399.21 173.948 401.285 173.247 403.496C169.589 403.624 165.867 403.414 162.254 404.161C157.959 403.296 153.537 401.403 150.452 398.218C154.447 399.338 158.141 402.049 162.427 401.713C164.83 401.058 166.704 399.219 168.133 397.245C166.577 396.116 164.256 394.788 166.249 392.804C168.097 382.321 166.477 371.428 167.096 360.79C166.186 357.241 168.633 354.648 169.698 351.626C169.88 349.952 167.96 348.905 167.951 347.249C168.506 345.975 170.399 345.802 170.699 344.401C169.107 342.508 167.669 340.552 167.669 337.949C162.072 341.926 160.234 349.388 154.993 353.41C160.234 343.737 166.249 334.436 172.273 325.218Z" fill="#34C456"/>
<path d="M154.993 353.41C160.234 349.388 162.072 341.926 167.669 337.949C167.669 340.552 169.107 342.508 170.699 344.401C170.399 345.802 168.506 345.975 167.951 347.249C167.96 348.905 169.88 349.952 169.698 351.626C168.633 354.647 166.186 357.241 167.096 360.79C166.477 371.428 168.097 382.321 166.249 392.804C164.256 394.788 166.577 396.116 168.133 397.245C166.704 399.219 164.83 401.058 162.427 401.713C158.141 402.049 154.447 399.338 150.452 398.218C147.567 396.025 145.865 392.704 144.882 389.273C145.101 384.25 145.456 379.227 144.955 374.212C146.684 366.732 150.215 359.425 154.993 353.41Z" fill="#28C056"/>
<path d="M435.154 349.169C435.009 346.94 436.301 345.411 438.421 344.874C443.954 351.881 448.313 360.026 450.415 368.716C450.233 372.511 450.197 376.315 450.297 380.128C447.703 392.54 435.109 401.549 422.724 401.813C418.483 401.767 414.261 401.704 410.02 401.749C408.81 401.74 407.59 401.731 406.38 401.731V400.866C409.192 400.794 412.131 401.121 414.861 400.22C417.992 399.838 421.259 399.265 423.825 397.281C424.771 396.662 425.708 396.025 426.628 395.361C428.402 395.306 430.067 394.369 431.023 392.868C433.134 390.975 434.99 388.854 436.51 386.461C439.322 383.886 439.768 379.845 441.124 376.46C441.934 372.784 442.489 368.753 441.279 365.103L441.115 364.321C440.787 361.827 440.405 359.252 439.185 357.014C437.811 354.411 436.465 351.79 435.154 349.169Z" fill="#2B2C23"/>
<path d="M439.186 357.014C440.405 359.252 440.787 361.827 441.115 364.321L440.159 364.394C439.586 361.964 439.113 359.516 439.186 357.014Z" fill="#7D8532"/>
<path d="M440.159 364.394L441.115 364.321L441.278 365.103C441.142 368.88 441.087 372.665 441.124 376.46C439.768 379.845 439.322 383.886 436.51 386.461C437.347 382.939 439.013 379.682 439.895 376.169C440.368 372.265 439.968 368.297 440.159 364.394Z" fill="#B8C25F"/>
<path d="M441.278 365.103C442.489 368.752 441.934 372.784 441.124 376.46C441.087 372.666 441.142 368.88 441.278 365.103Z" fill="#757A3F"/>
<path d="M450.415 368.716C451.534 372.411 450.97 376.396 450.297 380.127C450.196 376.315 450.233 372.511 450.415 368.716Z" fill="#616161"/>
<path opacity="0.65" d="M142.498 374.449L143.363 374.44C143.435 379.29 143.39 384.141 143.363 389.009L142.489 389C142.416 384.141 142.416 379.299 142.498 374.449Z" fill="#A5A6A5"/>
<path d="M144.882 389.273C143.645 384.386 144.273 379.136 144.955 374.213C145.456 379.227 145.101 384.25 144.882 389.273Z" fill="#59BF7E"/>
<path d="M426.427 394.633C427.628 393.45 429.303 392.64 431.023 392.867C430.067 394.369 428.402 395.306 426.627 395.361L426.427 394.633Z" fill="#99A948"/>
<path d="M410.721 398.773C416.344 398.864 420.922 394.815 426.427 394.633L426.628 395.361C425.708 396.025 424.771 396.662 423.825 397.281C420.658 397.518 417.728 398.883 414.579 399.238C413.287 399.065 412.004 398.91 410.721 398.773Z" fill="#CFE36C"/>
<path d="M414.579 399.237C417.728 398.883 420.658 397.518 423.825 397.281C421.259 399.265 417.992 399.838 414.861 400.22L414.579 399.237Z" fill="#7B8936"/>
<path d="M318.756 399.838C322.851 400.038 326.901 399.301 330.959 398.919C332.197 398.946 333.425 398.974 334.663 399.001C336.729 399.101 338.849 399.984 340.842 399.074C342.571 399.01 344.291 399.046 346.02 399.156C349.787 400.903 354.155 399.447 358.141 399.956L358.159 400.821C352.99 400.83 347.84 400.803 342.68 400.839C336.301 400.821 329.94 400.775 323.561 400.857C321.996 400.848 318.856 400.848 317.291 400.839L316.954 400.193C317.409 400.102 318.31 399.92 318.756 399.838Z" fill="#ACE45F"/>
<path d="M389.399 398.855C389.754 398.864 390.446 398.874 390.801 398.883C395.924 399.01 401.056 399.037 406.189 398.91C407.699 398.892 409.21 398.864 410.721 398.773C412.004 398.91 413.287 399.065 414.579 399.238L414.861 400.22C409.601 399.929 404.351 399.865 399.1 399.92C395.742 399.893 392.43 399.956 389.09 399.811L389.399 398.855Z" fill="#B7D059"/>
<path d="M282.993 400.02C283.321 399.975 283.976 399.884 284.303 399.847C286.105 399.838 287.898 399.847 289.7 399.784C291.356 399.82 294.65 399.893 296.306 399.92C298.099 399.947 299.901 399.947 301.703 399.911C303.459 399.911 305.206 399.865 306.962 399.774C308.446 399.984 311.403 400.393 312.877 400.603C312.541 400.866 311.849 401.394 311.503 401.667C305.206 401.776 298.918 401.704 292.63 401.749C286.779 401.722 280.936 401.704 275.094 401.749C275.385 401.531 275.959 401.103 276.25 400.885C278.498 400.621 280.745 400.33 282.993 400.02Z" fill="#96DD61"/>
<path d="M358.141 399.956C360.043 399.902 361.945 399.811 363.847 399.711C366.877 399.993 369.889 399.774 372.937 399.756C375.576 399.92 378.197 399.911 380.864 400.011L381.146 400.985C374.084 400.812 367.022 400.784 359.961 400.848C359.515 400.839 358.605 400.83 358.159 400.821L358.141 399.956Z" fill="#9FC255"/>
<path d="M380.864 400.011C383.603 399.929 386.324 399.856 389.09 399.811C392.43 399.956 395.742 399.893 399.1 399.92V400.812C393.103 400.903 387.115 400.639 381.146 400.985L380.864 400.011Z" fill="#89A245"/>
<path d="M399.1 399.92C404.351 399.865 409.601 399.929 414.861 400.22C412.131 401.121 409.192 400.794 406.38 400.866C403.95 400.848 401.521 400.83 399.1 400.812V399.92Z" fill="#6A792D"/>
<path d="M246.102 401.649C248.832 401.503 251.534 401.067 254.264 400.857C255.82 400.83 257.377 400.821 258.942 400.803C260.734 400.821 262.527 400.794 264.329 400.775C265.758 400.939 268.615 401.285 270.044 401.458C268.688 401.676 267.35 401.977 266.094 402.541L265.412 402.732C259.615 402.714 253.828 402.614 248.04 402.659C245.219 402.586 242.416 402.595 239.604 402.432C241.133 401.886 242.753 401.758 244.364 401.722C244.8 401.704 245.665 401.667 246.102 401.649Z" fill="#79D55C"/>
<path d="M311.503 401.667C311.849 401.394 312.541 400.866 312.878 400.603C314.343 400.73 315.817 400.821 317.291 400.839C318.856 400.848 321.996 400.848 323.561 400.857L323.57 401.74C319.539 401.74 315.526 401.722 311.503 401.667Z" fill="#90C060"/>
<path d="M323.561 400.857C329.94 400.775 336.301 400.821 342.68 400.839V401.731C339.932 401.722 337.229 401.722 334.499 401.749C330.85 401.74 327.21 401.74 323.57 401.74L323.561 400.857Z" fill="#84A856"/>
<path d="M342.68 400.839C347.84 400.803 352.99 400.83 358.159 400.821C358.605 400.83 359.515 400.839 359.961 400.848L359.97 401.74C354.201 401.74 348.44 401.776 342.68 401.731V400.839Z" fill="#6D8846"/>
<path d="M359.961 400.848C367.023 400.784 374.084 400.812 381.146 400.985C374.148 402.204 367.023 401.685 359.97 401.74L359.961 400.848Z" fill="#4F632F"/>
<path d="M381.146 400.985C387.115 400.639 393.103 400.903 399.1 400.812C401.521 400.83 403.95 400.848 406.38 400.866V401.731C403.941 401.722 401.521 401.722 399.1 401.731C395.96 401.795 392.666 401.185 389.7 402.486C383.421 402.714 377.16 402.605 370.881 402.659C368.433 402.659 365.994 402.695 363.555 402.75C361.99 402.75 358.86 402.75 357.295 402.75C353.918 402.677 350.57 402.623 347.194 402.714C342.944 402.65 338.703 402.641 334.463 402.614L334.499 401.749C337.229 401.722 339.932 401.722 342.68 401.731C348.44 401.776 354.201 401.74 359.97 401.74C367.022 401.685 374.148 402.204 381.146 400.985Z" fill="#313D20"/>
<path d="M181.328 402.413C184.722 402.741 188.117 402.25 191.447 401.649C195.105 401.685 198.764 401.704 202.431 401.704C204.851 401.713 207.281 401.713 209.711 401.695C210.948 401.731 212.186 401.776 213.424 401.831L213.569 402.741L213.697 403.733C202.03 403.369 190.355 403.724 178.68 403.414C179.563 403.059 180.445 402.723 181.328 402.413Z" fill="#52BE5A"/>
<path d="M266.094 402.541C267.35 401.977 268.688 401.676 270.044 401.458C271.718 401.622 273.402 401.713 275.094 401.749L275.404 402.614C272.291 402.605 269.197 402.614 266.094 402.541Z" fill="#79B759"/>
<path d="M275.094 401.749C280.936 401.704 286.779 401.722 292.63 401.749V402.641C288.38 402.659 284.149 402.614 279.917 402.65C278.407 402.632 276.905 402.641 275.404 402.614L275.094 401.749Z" fill="#679B46"/>
<path d="M292.63 401.749C298.918 401.704 305.206 401.776 311.503 401.667L311.822 402.523C305.425 402.641 299.027 402.696 292.63 402.641V401.749Z" fill="#4F7930"/>
<path d="M311.503 401.667C315.526 401.722 319.539 401.74 323.57 401.74C327.21 401.74 330.85 401.74 334.499 401.749L334.463 402.614C332.215 402.55 330.022 402.787 327.883 403.323L327.092 403.524C323.579 403.542 320.076 403.496 316.572 403.378C315.052 402.805 313.433 402.632 311.822 402.523L311.503 401.667Z" fill="#3D5626"/>
<path d="M389.7 402.486C392.666 401.185 395.961 401.795 399.1 401.731V402.641C395.942 402.641 392.839 402.668 389.7 402.486Z" fill="#464A3F"/>
<path d="M399.1 401.731C401.521 401.722 403.941 401.722 406.38 401.731C407.59 401.731 408.81 401.74 410.02 401.749L410.011 402.632C409.556 402.641 408.655 402.659 408.209 402.668C405.151 402.632 402.139 402.677 399.1 402.641V401.731Z" fill="#686962"/>
<path d="M410.02 401.749C414.261 401.704 418.483 401.767 422.724 401.813L422.769 402.623C418.501 402.604 414.261 402.659 410.011 402.632L410.02 401.749Z" fill="#959695"/>
<path d="M213.569 402.741C216.499 402.641 219.43 402.586 222.369 402.532C225.099 402.586 227.82 402.523 230.559 402.495C231.842 402.55 233.125 402.614 234.408 402.677L234.381 403.56C227.492 403.596 220.585 403.424 213.697 403.733L213.569 402.741Z" fill="#59A152"/>
<path d="M234.408 402.677C236.137 402.65 237.875 402.586 239.604 402.432C242.416 402.595 245.219 402.586 248.04 402.659V403.56C243.481 403.551 238.931 403.596 234.381 403.56L234.408 402.677Z" fill="#4F8845"/>
<path d="M248.04 402.659C253.828 402.614 259.615 402.714 265.412 402.732C259.724 404.106 253.837 403.487 248.04 403.56V402.659Z" fill="#457237"/>
<path d="M265.412 402.732L266.094 402.541C269.198 402.614 272.292 402.604 275.404 402.614C276.905 402.641 278.407 402.632 279.917 402.65L279.835 403.469C278.543 403.642 277.269 403.888 276.013 404.233C271.846 404.415 267.678 404.452 263.51 404.488C256.831 404.443 250.16 404.443 243.49 404.479C239.541 404.443 235.6 404.443 231.66 404.461C228.53 404.525 225.217 403.915 222.26 405.216C215.38 405.453 208.501 405.353 201.63 405.389C197.99 405.362 194.35 405.371 190.71 405.398C187.907 405.325 185.114 405.334 182.32 405.225C192.621 402.923 203.523 406.19 213.697 403.733C220.585 403.423 227.492 403.596 234.381 403.56C238.931 403.596 243.481 403.551 248.04 403.56C253.837 403.487 259.724 404.106 265.412 402.732Z" fill="#375833"/>
<path d="M279.917 402.65C284.149 402.614 288.38 402.659 292.63 402.641C299.027 402.695 305.425 402.641 311.822 402.523C313.433 402.632 315.052 402.805 316.572 403.378C312.532 403.478 308.5 403.524 304.46 403.578C296.252 403.542 288.035 403.596 279.835 403.469L279.917 402.65Z" fill="#2C451D"/>
<path d="M327.883 403.323C330.022 402.786 332.215 402.55 334.463 402.614C338.703 402.641 342.944 402.65 347.194 402.714L347.467 403.715C340.933 403.487 334.399 403.778 327.883 403.323Z" fill="#49533E"/>
<path d="M347.194 402.714C350.57 402.623 353.918 402.677 357.295 402.75V403.433C354.009 403.487 350.743 403.505 347.467 403.715L347.194 402.714Z" fill="#6A7063"/>
<path d="M357.295 402.75C358.86 402.75 361.99 402.75 363.555 402.75V403.442C361.99 403.442 358.86 403.433 357.295 403.433V402.75Z" fill="#898D83"/>
<path d="M363.555 402.75C365.994 402.695 368.433 402.659 370.881 402.659L370.899 403.542C368.442 403.514 365.994 403.478 363.555 403.442V402.75Z" fill="#A9ACA5"/>
<path d="M370.881 402.659C377.16 402.605 383.421 402.714 389.7 402.486L390.036 403.487L389.09 403.514C383.321 403.56 377.56 403.551 371.791 403.569L370.899 403.542L370.881 402.659Z" fill="#BEBFBC"/>
<path d="M389.7 402.486C392.839 402.668 395.942 402.641 399.1 402.641C402.139 402.677 405.152 402.632 408.209 402.668L408.2 403.542C406.607 403.551 403.422 403.56 401.83 403.569C397.89 403.524 393.959 403.551 390.036 403.487L389.7 402.486Z" fill="#D6D6D5"/>
<path opacity="0.92" d="M408.209 402.668C408.655 402.659 409.556 402.641 410.011 402.632C414.261 402.659 418.501 402.604 422.769 402.623C423.06 402.832 423.624 403.251 423.916 403.469C419.575 403.514 415.252 403.533 410.93 403.569C410.247 403.56 408.882 403.551 408.2 403.542L408.209 402.668Z" fill="#E4E4E4"/>
<path d="M162.254 404.161C165.867 403.414 169.589 403.624 173.247 403.496L174.157 403.551C174.466 404.033 175.085 404.989 175.395 405.471C173.584 405.353 171.773 405.253 169.971 405.016C167.441 404.443 164.83 404.388 162.254 404.161Z" fill="#5AB370"/>
<path d="M174.157 403.551C175.659 403.542 177.169 403.496 178.68 403.414C190.355 403.724 202.03 403.369 213.697 403.733C203.523 406.19 192.621 402.923 182.32 405.225C180.764 405.325 177.67 405.526 176.114 405.626L175.395 405.471C175.085 404.989 174.467 404.033 174.157 403.551Z" fill="#3C8044"/>
<path d="M276.013 404.233C277.269 403.888 278.543 403.642 279.835 403.469C288.035 403.596 296.252 403.542 304.46 403.578V404.47C301.412 404.461 298.399 404.452 295.36 404.479C291.411 404.443 287.47 404.461 283.53 404.479C281.018 404.406 278.516 404.324 276.013 404.233Z" fill="#535E4D"/>
<path d="M304.46 403.578C308.5 403.524 312.532 403.478 316.572 403.378L316.254 404.388C312.313 404.434 308.391 404.497 304.46 404.47V403.578Z" fill="#727C70"/>
<path d="M316.572 403.378C320.076 403.496 323.579 403.542 327.092 403.524L327.219 404.443C324.471 404.434 321.759 404.47 319.029 404.47C318.338 404.452 316.945 404.406 316.254 404.388L316.572 403.378Z" fill="#9FA49C"/>
<path d="M327.092 403.524L327.883 403.323C334.399 403.778 340.933 403.487 347.467 403.715C340.778 404.916 333.962 404.424 327.219 404.443L327.092 403.524Z" fill="#BCBFBB"/>
<path opacity="0.85" d="M347.467 403.715C350.743 403.505 354.009 403.487 357.295 403.433C358.86 403.433 361.99 403.442 363.555 403.442C365.994 403.478 368.442 403.515 370.899 403.542L371.791 403.569L371.809 404.425C370.289 404.506 368.761 404.497 367.25 404.488C364.192 404.425 361.18 404.425 358.141 404.452C354.701 404.406 351.289 404.625 347.903 405.107C341.315 405.608 334.708 405.325 328.12 405.389C325.062 405.335 322.05 405.389 319.011 405.362L319.029 404.47C321.759 404.47 324.471 404.434 327.219 404.443C333.962 404.425 340.778 404.916 347.467 403.715Z" fill="#D4D4D3"/>
<path opacity="0.71" d="M371.791 403.569C377.56 403.551 383.321 403.56 389.09 403.515V404.425C383.321 404.479 377.56 404.616 371.809 404.425L371.791 403.569Z" fill="#B5B5B5"/>
<path opacity="0.64" d="M389.09 403.514L390.036 403.487C393.958 403.551 397.89 403.524 401.83 403.569V404.434C397.571 404.479 393.331 404.616 389.09 404.424V403.514Z" fill="#A3A3A3"/>
<path opacity="0.5" d="M401.83 403.569C403.423 403.56 406.608 403.551 408.2 403.542C408.883 403.551 410.248 403.56 410.93 403.569V404.434C407.882 404.497 404.869 404.57 401.83 404.434V403.569Z" fill="#7F7F7F"/>
<path opacity="0.14" d="M410.93 403.569C415.252 403.533 419.575 403.514 423.916 403.469L423.615 404.397C419.375 404.47 415.161 404.597 410.93 404.434V403.569Z" fill="#232323"/>
<path opacity="0.14" d="M317.2 405.389C317.655 405.38 318.556 405.371 319.011 405.362C322.05 405.389 325.062 405.335 328.12 405.389V406.281C324.471 406.363 320.831 406.363 317.2 406.263V405.389Z" fill="#232323"/>
<path d="M222.26 405.216C225.217 403.915 228.53 404.525 231.66 404.461V405.38C228.521 405.353 225.39 405.398 222.26 405.216Z" fill="#4B6348"/>
<path d="M231.66 404.461C235.6 404.443 239.541 404.443 243.49 404.479V405.371C239.541 405.389 235.6 405.38 231.66 405.38V404.461Z" fill="#636F62"/>
<path d="M243.49 404.479C250.16 404.443 256.831 404.443 263.51 404.488V405.38C256.831 405.371 250.16 405.398 243.49 405.371V404.479Z" fill="#868B85"/>
<path d="M263.51 404.488C267.678 404.452 271.846 404.415 276.013 404.233C278.516 404.324 281.018 404.406 283.53 404.479L283.539 405.362C276.86 405.389 270.18 405.371 263.51 405.38V404.488Z" fill="#ABAFAB"/>
<path d="M283.53 404.479C287.47 404.461 291.411 404.443 295.36 404.479L295.351 405.362L294.459 405.38C291.402 405.362 288.38 405.371 285.332 405.389C284.886 405.38 283.985 405.371 283.539 405.362L283.53 404.479Z" fill="#CCCECC"/>
<path opacity="0.98" d="M295.36 404.479C298.399 404.452 301.412 404.461 304.46 404.47C308.391 404.497 312.313 404.434 316.254 404.388C316.945 404.406 318.338 404.452 319.029 404.47L319.011 405.362C318.556 405.371 317.655 405.38 317.2 405.389C313.56 405.362 309.92 405.362 306.28 405.38C302.631 405.362 298.991 405.353 295.351 405.362L295.36 404.479Z" fill="#E6E6E6"/>
<path opacity="0.43" d="M347.903 405.107C351.289 404.625 354.701 404.406 358.141 404.452L358.159 405.335C354.728 405.426 351.307 405.571 347.903 405.107Z" fill="#6E6E6E"/>
<path opacity="0.18" d="M358.141 404.452C361.18 404.424 364.192 404.424 367.25 404.488C366.586 407.109 360.707 404.743 358.159 405.334L358.141 404.452Z" fill="#2E2E2E"/>
<path opacity="0.89" d="M166.786 405.971C167.842 405.626 168.906 405.307 169.971 405.016C171.773 405.253 173.584 405.353 175.395 405.471L176.114 405.626C178.316 406.972 180.418 407.109 182.411 406.053C185.177 406.135 187.944 406.299 190.719 406.299C194.35 406.308 197.99 406.308 201.63 406.29C208.619 406.308 215.608 406.299 222.606 406.217L223.516 406.263L223.461 407.154C219.22 407.264 214.971 407.218 210.73 407.2C207.682 407.145 204.66 407.182 201.621 407.2C198.281 407.173 194.951 407.182 191.611 407.2C188.581 407.164 185.55 407.164 182.52 407.209C177.197 407.591 171.991 406.872 166.786 405.971Z" fill="#DBDDDB"/>
<path d="M176.114 405.626C177.67 405.526 180.764 405.325 182.32 405.225L182.411 406.053C180.418 407.109 178.316 406.972 176.114 405.626Z" fill="#91A595"/>
<path d="M182.32 405.225C185.114 405.334 187.907 405.325 190.71 405.398L190.719 406.299C187.944 406.299 185.177 406.135 182.411 406.053L182.32 405.225Z" fill="#6A7D6B"/>
<path d="M190.71 405.398C194.35 405.371 197.99 405.362 201.63 405.389V406.29C197.99 406.308 194.35 406.308 190.719 406.299L190.71 405.398Z" fill="#818F81"/>
<path d="M201.63 405.389C208.501 405.353 215.38 405.453 222.26 405.216L222.606 406.217C215.608 406.299 208.619 406.308 201.63 406.29V405.389Z" fill="#98A298"/>
<path d="M222.26 405.216C225.39 405.398 228.521 405.353 231.66 405.38V406.272C228.939 406.254 226.236 406.299 223.516 406.263L222.606 406.217L222.26 405.216Z" fill="#C2C6C1"/>
<path opacity="0.95" d="M231.66 405.38C235.6 405.38 239.541 405.389 243.49 405.371C250.16 405.398 256.831 405.371 263.51 405.38V406.272C260.161 406.272 256.84 406.272 253.491 406.299C250.452 406.254 247.43 406.272 244.391 406.29C240.442 406.263 236.501 406.281 232.561 406.299L231.66 406.272V405.38Z" fill="#DDDEDD"/>
<path opacity="0.83" d="M263.51 405.38C270.18 405.371 276.86 405.389 283.539 405.362C283.985 405.371 284.886 405.38 285.332 405.389L285.368 406.254C281.719 406.317 278.07 406.326 274.43 406.299C271.081 406.254 267.751 406.281 264.411 406.299L263.51 406.272V405.38Z" fill="#D1D1D1"/>
<path opacity="0.69" d="M285.332 405.389C288.38 405.371 291.401 405.362 294.459 405.38L294.441 406.263C291.411 406.326 288.389 406.39 285.368 406.254L285.332 405.389Z" fill="#AEAEAE"/>
<path opacity="0.53" d="M294.459 405.38L295.351 405.362C298.991 405.353 302.631 405.362 306.28 405.38V406.263C302.331 406.317 298.381 406.417 294.441 406.263L294.459 405.38Z" fill="#868686"/>
<path opacity="0.37" d="M306.28 405.38C309.92 405.362 313.56 405.362 317.2 405.389V406.263C313.551 406.354 309.911 406.354 306.28 406.263V405.38Z" fill="#5E5E5E"/>
<path opacity="0.72" d="M223.516 406.263C226.236 406.299 228.939 406.254 231.66 406.272L232.561 406.299L232.579 407.173C229.54 407.227 226.5 407.309 223.461 407.154L223.516 406.263Z" fill="#B6B6B6"/>
<path opacity="0.56" d="M232.561 406.299C236.501 406.281 240.442 406.263 244.391 406.29L244.409 407.164C240.46 407.227 236.519 407.327 232.579 407.173L232.561 406.299Z" fill="#8E8E8E"/>
<path opacity="0.33" d="M244.391 406.29C247.43 406.272 250.451 406.254 253.491 406.299L253.5 407.173C250.461 407.236 247.439 407.3 244.409 407.164L244.391 406.29Z" fill="#535353"/>
<path opacity="0.18" d="M253.491 406.299C256.84 406.272 260.161 406.272 263.51 406.272L264.411 406.299L264.429 407.182C260.78 407.264 257.14 407.264 253.5 407.173L253.491 406.299Z" fill="#2F2F2F"/>
<path opacity="0.08" d="M264.411 406.299C267.751 406.281 271.081 406.254 274.43 406.299V407.191C271.927 407.191 266.932 407.182 264.429 407.182L264.411 406.299Z" fill="#141414"/>
<path opacity="0.44" d="M182.52 407.209C185.55 407.164 188.581 407.164 191.611 407.2L191.629 408.074C189.363 407.118 183.658 409.53 182.52 407.209Z" fill="#707070"/>
<path opacity="0.21" d="M191.611 407.2C194.951 407.182 198.281 407.173 201.621 407.2L201.639 408.064C198.299 408.128 194.96 408.21 191.629 408.074L191.611 407.2Z" fill="#353535"/>
<path opacity="0.09" d="M201.621 407.2C204.66 407.182 207.681 407.145 210.73 407.2C210.084 409.848 204.187 407.464 201.639 408.064L201.621 407.2Z" fill="#161616"/>
</svg>
